<svg xmlns="http://www.w3.org/2000/svg" xmlns:xlink="http://www.w3.org/1999/xlink" width="600" zoomAndPan="magnify" viewBox="0 0 450 374.999991" height="500" preserveAspectRatio="xMidYMid meet" version="1.0"><defs><clipPath id="bce085eef0"><path d="M 140.054688 102.554688 L 309.945312 102.554688 L 309.945312 272.445312 L 140.054688 272.445312 Z M 140.054688 102.554688 " clip-rule="nonzero"/></clipPath><clipPath id="bc547b9370"><path d="M 225 102.554688 C 178.085938 102.554688 140.054688 140.585938 140.054688 187.5 C 140.054688 234.414062 178.085938 272.445312 225 272.445312 C 271.914062 272.445312 309.945312 234.414062 309.945312 187.5 C 309.945312 140.585938 271.914062 102.554688 225 102.554688 Z M 225 102.554688 " clip-rule="nonzero"/></clipPath><clipPath id="c9398d0a2b"><path d="M 0.0546875 0.554688 L 169.945312 0.554688 L 169.945312 170.445312 L 0.0546875 170.445312 Z M 0.0546875 0.554688 " clip-rule="nonzero"/></clipPath><clipPath id="1320537b4e"><path d="M 85 0.554688 C 38.085938 0.554688 0.0546875 38.585938 0.0546875 85.5 C 0.0546875 132.414062 38.085938 170.445312 85 170.445312 C 131.914062 170.445312 169.945312 132.414062 169.945312 85.5 C 169.945312 38.585938 131.914062 0.554688 85 0.554688 Z M 85 0.554688 " clip-rule="nonzero"/></clipPath><clipPath id="6c16b1451a"><rect x="0" width="170" y="0" height="171"/></clipPath><clipPath id="ed496e03bc"><path d="M 359 284 L 432 284 L 432 365.445312 L 359 365.445312 Z M 359 284 " clip-rule="nonzero"/></clipPath><clipPath id="e0cfb61471"><path d="M 347.183594 273 L 443.933594 273 L 443.933594 323 L 347.183594 323 Z M 347.183594 273 " clip-rule="nonzero"/></clipPath><clipPath id="3d8868324c"><path d="M 11.492188 34 L 34 34 L 34 38 L 11.492188 38 Z M 11.492188 34 " clip-rule="nonzero"/></clipPath><clipPath id="35bc0d5930"><path d="M 34.644531 10.46875 L 121.742188 10.46875 L 121.742188 83.15625 L 34.644531 83.15625 Z M 34.644531 10.46875 " clip-rule="nonzero"/></clipPath></defs><path fill="#000000" d="M 138.886719 44.808594 L 147.09375 44.808594 C 148.363281 44.808594 149.589844 45.039062 150.769531 45.503906 L 149.402344 48.992188 C 148.660156 48.703125 147.890625 48.558594 147.09375 48.558594 L 138.886719 48.558594 Z M 154.558594 48.113281 C 156.300781 50.035156 157.171875 52.292969 157.171875 54.886719 L 157.171875 60.125 L 153.421875 60.125 L 153.421875 54.886719 C 153.421875 53.257812 152.875 51.839844 151.78125 50.632812 Z M 157.171875 63.875 L 157.171875 64.734375 C 157.171875 67.933594 158.042969 70.871094 159.789062 73.554688 L 156.644531 75.597656 C 154.496094 72.292969 153.421875 68.671875 153.421875 64.734375 L 153.421875 63.875 Z M 161.902344 76.164062 L 161.910156 76.175781 C 164.367188 78.628906 167.308594 80.140625 170.738281 80.699219 L 170.132812 84.402344 C 165.910156 83.710938 162.285156 81.851562 159.257812 78.824219 L 159.25 78.816406 Z M 174.179688 80.914062 L 185.429688 80.914062 L 185.429688 84.664062 L 174.179688 84.664062 Z M 189.179688 80.914062 L 200.429688 80.914062 L 200.429688 84.664062 L 189.179688 84.664062 Z M 204.355469 80.992188 C 208.546875 81.34375 212.328125 82.777344 215.703125 85.296875 L 213.460938 88.300781 C 210.660156 86.210938 207.519531 85.019531 204.042969 84.726562 Z M 218.746094 88.035156 C 221.609375 91.140625 223.433594 94.757812 224.214844 98.886719 L 220.53125 99.585938 C 219.882812 96.160156 218.367188 93.15625 215.988281 90.578125 Z M 224.605469 102.96875 L 224.605469 114.222656 L 220.855469 114.222656 L 220.855469 102.976562 Z M 224.605469 117.972656 L 224.605469 129.222656 L 220.855469 129.222656 L 220.855469 117.972656 Z M 224.605469 132.972656 L 224.605469 144.222656 L 220.855469 144.222656 L 220.855469 132.972656 Z M 224.605469 147.972656 L 224.605469 159.222656 L 220.855469 159.222656 L 220.855469 147.972656 Z M 224.605469 162.972656 L 224.605469 174.222656 L 220.855469 174.222656 L 220.855469 162.972656 Z M 224.605469 177.972656 L 224.605469 189.222656 L 220.855469 189.222656 L 220.855469 177.972656 Z M 224.605469 192.972656 L 224.605469 204.222656 L 220.855469 204.222656 L 220.855469 192.972656 Z M 224.605469 207.972656 L 224.605469 219.222656 L 220.855469 219.222656 L 220.855469 207.972656 Z M 224.605469 222.972656 L 224.605469 234.222656 L 220.855469 234.222656 L 220.855469 222.972656 Z M 224.605469 237.972656 L 224.605469 249.222656 L 220.855469 249.222656 L 220.855469 237.972656 Z M 224.605469 252.972656 L 224.605469 264.222656 L 220.855469 264.222656 L 220.855469 252.972656 Z M 224.605469 267.972656 L 224.605469 275.152344 C 224.605469 276.398438 224.730469 277.625 224.972656 278.832031 L 221.296875 279.578125 C 221.003906 278.125 220.855469 276.648438 220.855469 275.152344 L 220.855469 267.972656 Z M 225.960938 282.089844 C 227.277344 285.320312 229.355469 287.964844 232.191406 290.027344 L 229.984375 293.0625 C 226.574219 290.582031 224.074219 287.394531 222.488281 283.503906 Z M 235.113281 291.765625 C 237.589844 292.941406 240.214844 293.527344 242.980469 293.527344 L 245.289062 293.527344 L 245.289062 297.277344 L 242.980469 297.277344 C 239.652344 297.277344 236.492188 296.570312 233.503906 295.152344 Z M 249.039062 293.527344 L 260.289062 293.527344 L 260.289062 297.277344 L 249.039062 297.277344 Z M 264.039062 293.527344 L 266.027344 293.527344 C 269.511719 293.527344 272.777344 294.347656 275.828125 295.984375 L 274.054688 299.289062 C 271.558594 297.949219 268.882812 297.277344 266.027344 297.277344 L 264.039062 297.277344 Z M 279.242188 298.28125 C 282.527344 301 284.761719 304.394531 285.949219 308.464844 L 282.347656 309.511719 C 281.378906 306.179688 279.546875 303.398438 276.855469 301.171875 Z M 286.699219 312.511719 C 286.75 313.097656 286.773438 313.6875 286.773438 314.277344 C 286.773438 317.257812 287.503906 320.039062 288.957031 322.617188 L 285.691406 324.460938 C 283.914062 321.308594 283.023438 317.914062 283.023438 314.277344 C 283.023438 313.789062 283.003906 313.308594 282.964844 312.828125 Z M 290.898438 325.378906 C 293.183594 328.023438 296.003906 329.796875 299.355469 330.695312 L 298.382812 334.316406 C 294.289062 333.21875 290.847656 331.054688 288.0625 327.828125 Z M 302.683594 331.242188 C 303.042969 331.261719 303.410156 331.273438 303.773438 331.273438 L 313.832031 331.273438 L 313.832031 335.023438 L 303.773438 335.023438 C 303.328125 335.023438 302.886719 335.011719 302.445312 334.984375 Z M 317.582031 331.273438 L 328.832031 331.273438 L 328.832031 335.023438 L 317.582031 335.023438 Z M 332.582031 331.273438 L 339.878906 331.273438 L 339.878906 335.023438 L 332.582031 335.023438 Z M 332.582031 331.273438 " fill-opacity="1" fill-rule="nonzero"/><g clip-path="url(#bce085eef0)"><g clip-path="url(#bc547b9370)"><g transform="matrix(1, 0, 0, 1, 140, 102)"><g clip-path="url(#6c16b1451a)"><g clip-path="url(#c9398d0a2b)"><g clip-path="url(#1320537b4e)"><path fill="#222222" d="M 0.0546875 0.554688 L 169.945312 0.554688 L 169.945312 170.445312 L 0.0546875 170.445312 Z M 0.0546875 0.554688 " fill-opacity="1" fill-rule="nonzero"/></g></g></g></g></g></g><g clip-path="url(#ed496e03bc)"><path fill="#231f20" d="M 400.28125 286.222656 C 397.671875 283.597656 393.425781 283.597656 390.835938 286.222656 L 361.863281 315.398438 C 360.597656 316.671875 359.898438 318.359375 359.898438 320.160156 L 359.898438 358.6875 C 359.898438 362.394531 362.894531 365.410156 366.574219 365.410156 L 382.171875 365.410156 C 385.851562 365.410156 388.851562 362.394531 388.851562 358.6875 L 388.851562 340.746094 C 388.851562 339.511719 389.84375 338.511719 391.070312 338.511719 L 399.988281 338.511719 C 401.214844 338.511719 402.207031 339.511719 402.207031 340.746094 L 402.207031 358.707031 C 402.207031 362.414062 405.207031 365.433594 408.886719 365.433594 L 424.480469 365.433594 C 428.160156 365.433594 431.160156 362.414062 431.160156 358.707031 L 431.160156 320.160156 C 431.160156 318.359375 430.460938 316.671875 429.195312 315.398438 Z M 426.761719 358.6875 C 426.761719 359.921875 425.765625 360.921875 424.539062 360.921875 L 408.945312 360.921875 C 407.71875 360.921875 406.722656 359.921875 406.722656 358.6875 L 406.722656 340.746094 C 406.722656 337.042969 403.726562 334.023438 400.046875 334.023438 L 391.128906 334.023438 C 387.449219 334.023438 384.449219 337.042969 384.449219 340.746094 L 384.449219 358.707031 C 384.449219 359.941406 383.457031 360.941406 382.230469 360.941406 L 366.574219 360.941406 C 365.347656 360.941406 364.355469 359.941406 364.355469 358.707031 L 364.355469 320.160156 C 364.355469 319.554688 364.589844 319.003906 365.019531 318.574219 L 393.972656 289.398438 C 394.808594 288.558594 396.289062 288.558594 397.125 289.398438 L 426.097656 318.574219 C 426.527344 319.003906 426.761719 319.554688 426.761719 320.160156 Z M 426.761719 358.6875 " fill-opacity="1" fill-rule="nonzero"/></g><g clip-path="url(#e0cfb61471)"><path fill="#231f20" d="M 400.28125 275.007812 C 397.75 272.460938 393.347656 272.460938 390.835938 275.007812 L 377.734375 288.203125 L 377.734375 285.773438 C 377.734375 282.066406 374.734375 279.046875 371.054688 279.046875 L 366.574219 279.046875 C 362.894531 279.046875 359.898438 282.066406 359.898438 285.773438 L 359.898438 306.164062 L 347.183594 318.964844 L 350.335938 322.140625 L 393.972656 278.1875 C 394.808594 277.34375 396.289062 277.34375 397.125 278.1875 L 440.777344 322.140625 L 443.933594 318.964844 Z M 364.355469 285.773438 C 364.355469 284.539062 365.347656 283.539062 366.574219 283.539062 L 371.035156 283.539062 C 372.261719 283.539062 373.253906 284.539062 373.253906 285.773438 L 373.253906 292.695312 L 364.335938 301.671875 L 364.335938 285.773438 Z M 364.355469 285.773438 " fill-opacity="1" fill-rule="nonzero"/></g><path fill="#000000" d="M 39.101562 47.175781 C 39.101562 46.378906 38.457031 45.730469 37.664062 45.730469 L 22.363281 45.730469 C 21.566406 45.730469 20.925781 46.378906 20.925781 47.175781 C 20.925781 47.976562 21.566406 48.621094 22.363281 48.621094 L 37.664062 48.621094 C 38.457031 48.621094 39.101562 47.976562 39.101562 47.175781 " fill-opacity="1" fill-rule="nonzero"/><path fill="#000000" d="M 37.664062 22.839844 L 22.363281 22.839844 C 21.566406 22.839844 20.925781 23.488281 20.925781 24.289062 C 20.925781 25.085938 21.566406 25.734375 22.363281 25.734375 L 37.664062 25.734375 C 38.457031 25.734375 39.101562 25.085938 39.101562 24.289062 C 39.101562 23.488281 38.457031 22.839844 37.664062 22.839844 " fill-opacity="1" fill-rule="nonzero"/><g clip-path="url(#3d8868324c)"><path fill="#000000" d="M 12.929688 37.179688 L 31.871094 37.179688 C 32.667969 37.179688 33.308594 36.53125 33.308594 35.730469 C 33.308594 34.933594 32.667969 34.285156 31.871094 34.285156 L 12.929688 34.285156 C 12.136719 34.285156 11.492188 34.933594 11.492188 35.730469 C 11.492188 36.53125 12.136719 37.179688 12.929688 37.179688 " fill-opacity="1" fill-rule="nonzero"/></g><path fill="#000000" d="M 105.644531 69.917969 C 104.027344 69.917969 102.714844 71.238281 102.714844 72.867188 C 102.714844 74.496094 104.027344 75.8125 105.644531 75.8125 C 107.265625 75.8125 108.578125 74.496094 108.578125 72.867188 C 108.578125 71.238281 107.265625 69.917969 105.644531 69.917969 " fill-opacity="1" fill-rule="nonzero"/><path fill="#000000" d="M 50.925781 69.917969 C 49.308594 69.917969 47.996094 71.238281 47.996094 72.867188 C 47.996094 74.496094 49.308594 75.8125 50.925781 75.8125 C 52.546875 75.8125 53.855469 74.496094 53.855469 72.867188 C 53.855469 71.238281 52.546875 69.917969 50.925781 69.917969 " fill-opacity="1" fill-rule="nonzero"/><path fill="#000000" d="M 111.660156 52.6875 L 95.386719 52.6875 L 95.386719 36.324219 L 101.015625 36.324219 L 111.660156 47.027344 Z M 92.511719 33.429688 L 92.511719 55.578125 L 114.539062 55.578125 L 114.539062 45.832031 L 102.207031 33.429688 L 92.511719 33.429688 " fill-opacity="1" fill-rule="nonzero"/><g clip-path="url(#35bc0d5930)"><path fill="#000000" d="M 118.867188 70.023438 C 118.867188 70.769531 118.257812 71.378906 117.515625 71.378906 L 115.761719 71.378906 C 115.039062 66.410156 110.785156 62.578125 105.644531 62.578125 C 100.507812 62.578125 96.253906 66.410156 95.53125 71.378906 L 61.039062 71.378906 C 60.320312 66.410156 56.066406 62.578125 50.925781 62.578125 C 45.789062 62.578125 41.535156 66.410156 40.8125 71.378906 C 39.097656 71.363281 37.707031 69.957031 37.707031 68.230469 L 37.707031 60.519531 L 88.128906 60.519531 L 88.128906 29.078125 L 98.925781 29.078125 C 102.246094 29.078125 105.367188 30.378906 107.714844 32.742188 L 115.226562 40.292969 C 117.574219 42.652344 118.867188 45.789062 118.867188 49.128906 Z M 105.644531 80.261719 C 101.589844 80.261719 98.289062 76.945312 98.289062 72.867188 C 98.289062 68.789062 101.589844 65.472656 105.644531 65.472656 C 109.703125 65.472656 113.003906 68.789062 113.003906 72.867188 C 113.003906 76.945312 109.703125 80.261719 105.644531 80.261719 Z M 50.925781 80.261719 C 46.871094 80.261719 43.570312 76.945312 43.570312 72.867188 C 43.570312 68.789062 46.871094 65.472656 50.925781 65.472656 C 54.980469 65.472656 58.28125 68.789062 58.28125 72.867188 C 58.28125 76.945312 54.980469 80.261719 50.925781 80.261719 Z M 109.75 30.695312 C 106.859375 27.789062 103.011719 26.1875 98.925781 26.1875 L 88.128906 26.1875 L 88.128906 15.042969 C 88.128906 12.519531 86.089844 10.46875 83.578125 10.46875 L 39.378906 10.46875 C 36.871094 10.46875 34.832031 12.519531 34.832031 15.042969 L 34.832031 19.082031 C 34.832031 19.878906 35.472656 20.527344 36.269531 20.527344 C 37.0625 20.527344 37.707031 19.878906 37.707031 19.082031 L 37.707031 15.042969 C 37.707031 14.117188 38.457031 13.359375 39.378906 13.359375 L 83.578125 13.359375 C 84.5 13.359375 85.253906 14.117188 85.253906 15.042969 L 85.253906 57.625 L 37.707031 57.625 L 37.707031 53.085938 C 37.707031 52.289062 37.0625 51.640625 36.269531 51.640625 C 35.472656 51.640625 34.832031 52.289062 34.832031 53.085938 L 34.832031 68.230469 C 34.832031 71.546875 37.507812 74.246094 40.800781 74.269531 C 41.484375 79.277344 45.757812 83.15625 50.925781 83.15625 C 56.09375 83.15625 60.367188 79.28125 61.050781 74.273438 L 95.519531 74.273438 C 96.207031 79.28125 100.480469 83.15625 105.644531 83.15625 C 110.8125 83.15625 115.085938 79.28125 115.773438 74.273438 L 117.515625 74.273438 C 119.847656 74.273438 121.742188 72.367188 121.742188 70.023438 L 121.742188 49.128906 C 121.742188 45.019531 120.148438 41.152344 117.257812 38.246094 L 109.75 30.695312 " fill-opacity="1" fill-rule="nonzero"/></g></svg>