<svg xmlns="http://www.w3.org/2000/svg" xmlns:xlink="http://www.w3.org/1999/xlink" width="600" zoomAndPan="magnify" viewBox="0 0 450 374.999991" height="500" preserveAspectRatio="xMidYMid meet" version="1.0"><defs><clipPath id="028b4e7b71"><path d="M 140.054688 102.554688 L 309.945312 102.554688 L 309.945312 272.445312 L 140.054688 272.445312 Z M 140.054688 102.554688 " clip-rule="nonzero"/></clipPath><clipPath id="e379026a95"><path d="M 225 102.554688 C 178.085938 102.554688 140.054688 140.585938 140.054688 187.5 C 140.054688 234.414062 178.085938 272.445312 225 272.445312 C 271.914062 272.445312 309.945312 234.414062 309.945312 187.5 C 309.945312 140.585938 271.914062 102.554688 225 102.554688 Z M 225 102.554688 " clip-rule="nonzero"/></clipPath><clipPath id="80e8e8b87f"><path d="M 0.0546875 0.554688 L 169.945312 0.554688 L 169.945312 170.445312 L 0.0546875 170.445312 Z M 0.0546875 0.554688 " clip-rule="nonzero"/></clipPath><clipPath id="48dd206504"><path d="M 85 0.554688 C 38.085938 0.554688 0.0546875 38.585938 0.0546875 85.5 C 0.0546875 132.414062 38.085938 170.445312 85 170.445312 C 131.914062 170.445312 169.945312 132.414062 169.945312 85.5 C 169.945312 38.585938 131.914062 0.554688 85 0.554688 Z M 85 0.554688 " clip-rule="nonzero"/></clipPath><clipPath id="9d96a99b09"><rect x="0" width="170" y="0" height="171"/></clipPath><clipPath id="aa79848a35"><path d="M 26.285156 21.199219 L 93 21.199219 L 93 41 L 26.285156 41 Z M 26.285156 21.199219 " clip-rule="nonzero"/></clipPath><clipPath id="182673d9e9"><path d="M 87 24.644531 L 138.785156 24.644531 L 138.785156 43.527344 L 87 43.527344 Z M 87 24.644531 " clip-rule="nonzero"/></clipPath><clipPath id="d5eb327a41"><path d="M 43.679688 38.613281 L 74.828125 38.613281 L 74.828125 102.113281 L 43.679688 102.113281 Z M 43.679688 38.613281 " clip-rule="nonzero"/></clipPath><clipPath id="8896a1fd16"><path d="M 72.75 41.199219 L 120.253906 41.199219 L 120.253906 102.113281 L 72.75 102.113281 Z M 72.75 41.199219 " clip-rule="nonzero"/></clipPath><clipPath id="31f1ceed10"><path d="M 348.578125 272.445312 L 438.578125 272.445312 L 438.578125 362.445312 L 348.578125 362.445312 Z M 348.578125 272.445312 " clip-rule="nonzero"/></clipPath></defs><path fill="#000000" d="M 138.886719 44.808594 L 147.09375 44.808594 C 148.363281 44.808594 149.589844 45.039062 150.769531 45.503906 L 149.402344 48.992188 C 148.660156 48.703125 147.890625 48.558594 147.09375 48.558594 L 138.886719 48.558594 Z M 154.558594 48.113281 C 156.300781 50.035156 157.171875 52.292969 157.171875 54.886719 L 157.171875 60.125 L 153.421875 60.125 L 153.421875 54.886719 C 153.421875 53.257812 152.875 51.839844 151.78125 50.632812 Z M 157.171875 63.875 L 157.171875 64.734375 C 157.171875 67.933594 158.042969 70.871094 159.789062 73.554688 L 156.644531 75.597656 C 154.496094 72.292969 153.421875 68.671875 153.421875 64.734375 L 153.421875 63.875 Z M 161.902344 76.164062 L 161.910156 76.175781 C 164.367188 78.628906 167.308594 80.140625 170.738281 80.699219 L 170.132812 84.402344 C 165.910156 83.710938 162.285156 81.851562 159.257812 78.824219 L 159.25 78.816406 Z M 174.179688 80.914062 L 185.429688 80.914062 L 185.429688 84.664062 L 174.179688 84.664062 Z M 189.179688 80.914062 L 200.429688 80.914062 L 200.429688 84.664062 L 189.179688 84.664062 Z M 204.355469 80.992188 C 208.546875 81.34375 212.328125 82.777344 215.703125 85.296875 L 213.460938 88.300781 C 210.660156 86.210938 207.519531 85.019531 204.042969 84.726562 Z M 218.746094 88.035156 C 221.609375 91.140625 223.433594 94.757812 224.214844 98.886719 L 220.53125 99.585938 C 219.882812 96.160156 218.367188 93.15625 215.988281 90.578125 Z M 224.605469 102.96875 L 224.605469 114.222656 L 220.855469 114.222656 L 220.855469 102.976562 Z M 224.605469 117.972656 L 224.605469 129.222656 L 220.855469 129.222656 L 220.855469 117.972656 Z M 224.605469 132.972656 L 224.605469 144.222656 L 220.855469 144.222656 L 220.855469 132.972656 Z M 224.605469 147.972656 L 224.605469 159.222656 L 220.855469 159.222656 L 220.855469 147.972656 Z M 224.605469 162.972656 L 224.605469 174.222656 L 220.855469 174.222656 L 220.855469 162.972656 Z M 224.605469 177.972656 L 224.605469 189.222656 L 220.855469 189.222656 L 220.855469 177.972656 Z M 224.605469 192.972656 L 224.605469 204.222656 L 220.855469 204.222656 L 220.855469 192.972656 Z M 224.605469 207.972656 L 224.605469 219.222656 L 220.855469 219.222656 L 220.855469 207.972656 Z M 224.605469 222.972656 L 224.605469 234.222656 L 220.855469 234.222656 L 220.855469 222.972656 Z M 224.605469 237.972656 L 224.605469 249.222656 L 220.855469 249.222656 L 220.855469 237.972656 Z M 224.605469 252.972656 L 224.605469 264.222656 L 220.855469 264.222656 L 220.855469 252.972656 Z M 224.605469 267.972656 L 224.605469 275.152344 C 224.605469 276.398438 224.730469 277.625 224.972656 278.832031 L 221.296875 279.578125 C 221.003906 278.125 220.855469 276.648438 220.855469 275.152344 L 220.855469 267.972656 Z M 225.960938 282.089844 C 227.277344 285.320312 229.355469 287.964844 232.191406 290.027344 L 229.984375 293.0625 C 226.574219 290.582031 224.074219 287.394531 222.488281 283.503906 Z M 235.113281 291.765625 C 237.589844 292.941406 240.214844 293.527344 242.980469 293.527344 L 245.289062 293.527344 L 245.289062 297.277344 L 242.980469 297.277344 C 239.652344 297.277344 236.492188 296.570312 233.503906 295.152344 Z M 249.039062 293.527344 L 260.289062 293.527344 L 260.289062 297.277344 L 249.039062 297.277344 Z M 264.039062 293.527344 L 266.027344 293.527344 C 269.511719 293.527344 272.777344 294.347656 275.828125 295.984375 L 274.054688 299.289062 C 271.558594 297.949219 268.882812 297.277344 266.027344 297.277344 L 264.039062 297.277344 Z M 279.242188 298.28125 C 282.527344 301 284.761719 304.394531 285.949219 308.464844 L 282.347656 309.511719 C 281.378906 306.179688 279.546875 303.398438 276.855469 301.171875 Z M 286.699219 312.511719 C 286.75 313.097656 286.773438 313.6875 286.773438 314.277344 C 286.773438 317.257812 287.503906 320.039062 288.957031 322.617188 L 285.691406 324.460938 C 283.914062 321.308594 283.023438 317.914062 283.023438 314.277344 C 283.023438 313.789062 283.003906 313.308594 282.964844 312.828125 Z M 290.898438 325.378906 C 293.183594 328.023438 296.003906 329.796875 299.355469 330.695312 L 298.382812 334.316406 C 294.289062 333.21875 290.847656 331.054688 288.0625 327.828125 Z M 302.683594 331.242188 C 303.042969 331.261719 303.410156 331.273438 303.773438 331.273438 L 313.832031 331.273438 L 313.832031 335.023438 L 303.773438 335.023438 C 303.328125 335.023438 302.886719 335.011719 302.445312 334.984375 Z M 317.582031 331.273438 L 328.832031 331.273438 L 328.832031 335.023438 L 317.582031 335.023438 Z M 332.582031 331.273438 L 339.878906 331.273438 L 339.878906 335.023438 L 332.582031 335.023438 Z M 332.582031 331.273438 " fill-opacity="1" fill-rule="nonzero"/><g clip-path="url(#028b4e7b71)"><g clip-path="url(#e379026a95)"><g transform="matrix(1, 0, 0, 1, 140, 102)"><g clip-path="url(#9d96a99b09)"><g clip-path="url(#80e8e8b87f)"><g clip-path="url(#48dd206504)"><path fill="#222222" d="M 0.0546875 0.554688 L 169.945312 0.554688 L 169.945312 170.445312 L 0.0546875 170.445312 Z M 0.0546875 0.554688 " fill-opacity="1" fill-rule="nonzero"/></g></g></g></g></g></g><path fill="#000000" d="M 47.289062 40.1875 L 73.914062 53.007812 L 89.132812 49.125 L 89.132812 29.503906 Z M 73.722656 54.925781 L 42.023438 39.664062 L 89.980469 27.417969 L 90.945312 27.480469 L 90.945312 50.527344 L 73.722656 54.925781 " fill-opacity="1" fill-rule="nonzero"/><path fill="#000000" d="M 90.945312 29.777344 L 90.945312 48.660156 L 116.570312 42.113281 Z M 89.132812 50.992188 L 89.058594 26.886719 L 121.835938 42.636719 L 89.132812 50.992188 " fill-opacity="1" fill-rule="nonzero"/><path fill="#000000" d="M 75.117188 54.570312 L 82.890625 70.703125 L 127.957031 59 L 118.765625 43.421875 Z M 81.902344 72.828125 L 72.519531 53.367188 L 119.078125 41.476562 L 119.757812 41.527344 L 130.742188 60.148438 L 81.902344 72.828125 " fill-opacity="1" fill-rule="nonzero"/><path fill="#000000" d="M 35.722656 54.890625 L 63.976562 69.339844 L 72.546875 54.363281 L 44.972656 41.085938 Z M 64.691406 71.742188 L 33.082031 55.574219 L 44.246094 38.910156 L 44.273438 38.867188 L 44.894531 39.039062 L 75.089844 53.574219 L 64.691406 71.742188 " fill-opacity="1" fill-rule="nonzero"/><g clip-path="url(#aa79848a35)"><path fill="#000000" d="M 32.4375 34.574219 L 44.699219 38.980469 L 87.335938 28.089844 L 76.675781 23.195312 Z M 44.609375 40.875 L 26.285156 34.285156 L 76.851562 21.285156 L 92.742188 28.578125 L 44.609375 40.875 " fill-opacity="1" fill-rule="nonzero"/></g><g clip-path="url(#182673d9e9)"><path fill="#000000" d="M 93.082031 28.792969 L 119.347656 41.441406 L 132.722656 39.460938 L 106.5625 26.769531 Z M 119.058594 43.3125 L 87 27.875 L 106.851562 24.898438 L 138.796875 40.394531 L 119.058594 43.3125 " fill-opacity="1" fill-rule="nonzero"/></g><g clip-path="url(#d5eb327a41)"><path fill="#000000" d="M 44.824219 39.003906 L 43.746094 38.769531 L 43.746094 42.914062 L 44.972656 41.085938 L 46.714844 41.925781 L 72.910156 54.535156 L 72.910156 99.679688 L 45.5625 85.902344 L 45.5625 59.925781 L 43.746094 58.996094 L 43.746094 87.015625 L 73.714844 102.113281 L 74.726562 101.546875 L 74.726562 53.402344 L 44.824219 39.003906 " fill-opacity="1" fill-rule="nonzero"/></g><g clip-path="url(#8896a1fd16)"><path fill="#000000" d="M 118.292969 61.511719 L 118.292969 88.859375 L 74.726562 99.988281 L 74.726562 54.671875 L 116.933594 43.890625 L 118.765625 43.421875 L 120.109375 45.703125 L 120.109375 41.511719 L 119.347656 41.441406 L 72.910156 53.265625 L 72.910156 101.710938 L 73.714844 102.113281 L 120.109375 90.265625 L 120.109375 61.039062 L 118.292969 61.511719 " fill-opacity="1" fill-rule="nonzero"/></g><g clip-path="url(#31f1ceed10)"><path fill="#100f0d" d="M 435.195312 359.0625 L 404.84375 359.0625 L 404.84375 315.960938 L 435.195312 315.960938 Z M 380.820312 359.0625 L 372.601562 359.0625 L 372.601562 345.117188 L 380.820312 345.117188 Z M 351.964844 275.828125 L 401.460938 275.828125 L 401.460938 359.0625 L 384.203125 359.0625 L 384.203125 343.425781 C 384.203125 342.492188 383.445312 341.734375 382.511719 341.734375 L 370.910156 341.734375 C 369.976562 341.734375 369.21875 342.492188 369.21875 343.425781 L 369.21875 359.0625 L 351.964844 359.0625 Z M 436.886719 312.574219 L 404.84375 312.574219 L 404.84375 274.136719 C 404.84375 273.203125 404.085938 272.445312 403.152344 272.445312 L 350.273438 272.445312 C 349.335938 272.445312 348.578125 273.203125 348.578125 274.136719 L 348.578125 360.753906 C 348.578125 361.6875 349.335938 362.445312 350.273438 362.445312 L 436.886719 362.445312 C 437.824219 362.445312 438.578125 361.6875 438.578125 360.753906 L 438.578125 314.265625 C 438.578125 313.332031 437.824219 312.574219 436.886719 312.574219 " fill-opacity="1" fill-rule="nonzero"/></g><path fill="#100f0d" d="M 363.769531 290.074219 L 359.652344 290.074219 L 359.652344 285.957031 L 363.769531 285.957031 Z M 365.460938 282.570312 L 357.960938 282.570312 C 357.023438 282.570312 356.269531 283.328125 356.269531 284.265625 L 356.269531 291.765625 C 356.269531 292.699219 357.023438 293.457031 357.960938 293.457031 L 365.460938 293.457031 C 366.394531 293.457031 367.152344 292.699219 367.152344 291.765625 L 367.152344 284.265625 C 367.152344 283.328125 366.394531 282.570312 365.460938 282.570312 " fill-opacity="1" fill-rule="nonzero"/><path fill="#100f0d" d="M 374.652344 285.957031 L 378.769531 285.957031 L 378.769531 290.074219 L 374.652344 290.074219 Z M 372.960938 293.457031 L 380.460938 293.457031 C 381.398438 293.457031 382.152344 292.699219 382.152344 291.765625 L 382.152344 284.265625 C 382.152344 283.328125 381.398438 282.570312 380.460938 282.570312 L 372.960938 282.570312 C 372.027344 282.570312 371.269531 283.328125 371.269531 284.265625 L 371.269531 291.765625 C 371.269531 292.699219 372.027344 293.457031 372.960938 293.457031 " fill-opacity="1" fill-rule="nonzero"/><path fill="#100f0d" d="M 389.65625 285.957031 L 393.773438 285.957031 L 393.773438 290.074219 L 389.65625 290.074219 Z M 387.960938 293.457031 L 395.464844 293.457031 C 396.398438 293.457031 397.15625 292.699219 397.15625 291.765625 L 397.15625 284.265625 C 397.15625 283.328125 396.398438 282.570312 395.464844 282.570312 L 387.960938 282.570312 C 387.027344 282.570312 386.269531 283.328125 386.269531 284.265625 L 386.269531 291.765625 C 386.269531 292.699219 387.027344 293.457031 387.960938 293.457031 " fill-opacity="1" fill-rule="nonzero"/><path fill="#100f0d" d="M 363.769531 305.074219 L 359.652344 305.074219 L 359.652344 300.957031 L 363.769531 300.957031 Z M 365.460938 297.574219 L 357.960938 297.574219 C 357.023438 297.574219 356.269531 298.332031 356.269531 299.265625 L 356.269531 306.765625 C 356.269531 307.699219 357.023438 308.457031 357.960938 308.457031 L 365.460938 308.457031 C 366.394531 308.457031 367.152344 307.699219 367.152344 306.765625 L 367.152344 299.265625 C 367.152344 298.332031 366.394531 297.574219 365.460938 297.574219 " fill-opacity="1" fill-rule="nonzero"/><path fill="#100f0d" d="M 374.652344 300.957031 L 378.769531 300.957031 L 378.769531 305.074219 L 374.652344 305.074219 Z M 372.960938 308.457031 L 380.460938 308.457031 C 381.398438 308.457031 382.152344 307.699219 382.152344 306.765625 L 382.152344 299.265625 C 382.152344 298.332031 381.398438 297.574219 380.460938 297.574219 L 372.960938 297.574219 C 372.027344 297.574219 371.269531 298.332031 371.269531 299.265625 L 371.269531 306.765625 C 371.269531 307.699219 372.027344 308.457031 372.960938 308.457031 " fill-opacity="1" fill-rule="nonzero"/><path fill="#100f0d" d="M 389.65625 300.957031 L 393.773438 300.957031 L 393.773438 305.074219 L 389.65625 305.074219 Z M 387.960938 308.457031 L 395.464844 308.457031 C 396.398438 308.457031 397.15625 307.699219 397.15625 306.765625 L 397.15625 299.265625 C 397.15625 298.332031 396.398438 297.574219 395.464844 297.574219 L 387.960938 297.574219 C 387.027344 297.574219 386.269531 298.332031 386.269531 299.265625 L 386.269531 306.765625 C 386.269531 307.699219 387.027344 308.457031 387.960938 308.457031 " fill-opacity="1" fill-rule="nonzero"/><path fill="#100f0d" d="M 411.878906 324.875 L 415.050781 324.875 L 415.050781 328.046875 L 411.878906 328.046875 Z M 410.183594 331.433594 L 416.742188 331.433594 C 417.675781 331.433594 418.433594 330.675781 418.433594 329.742188 L 418.433594 323.183594 C 418.433594 322.25 417.675781 321.492188 416.742188 321.492188 L 410.183594 321.492188 C 409.25 321.492188 408.492188 322.25 408.492188 323.183594 L 408.492188 329.742188 C 408.492188 330.675781 409.25 331.433594 410.183594 331.433594 " fill-opacity="1" fill-rule="nonzero"/><path fill="#100f0d" d="M 424.992188 324.875 L 428.164062 324.875 L 428.164062 328.046875 L 424.992188 328.046875 Z M 423.296875 331.433594 L 429.855469 331.433594 C 430.789062 331.433594 431.546875 330.675781 431.546875 329.742188 L 431.546875 323.183594 C 431.546875 322.25 430.789062 321.492188 429.855469 321.492188 L 423.296875 321.492188 C 422.363281 321.492188 421.605469 322.25 421.605469 323.183594 L 421.605469 329.742188 C 421.605469 330.675781 422.363281 331.433594 423.296875 331.433594 " fill-opacity="1" fill-rule="nonzero"/><path fill="#100f0d" d="M 411.878906 337.988281 L 415.050781 337.988281 L 415.050781 341.160156 L 411.878906 341.160156 Z M 410.183594 344.546875 L 416.742188 344.546875 C 417.675781 344.546875 418.433594 343.789062 418.433594 342.855469 L 418.433594 336.296875 C 418.433594 335.363281 417.675781 334.605469 416.742188 334.605469 L 410.183594 334.605469 C 409.25 334.605469 408.492188 335.363281 408.492188 336.296875 L 408.492188 342.855469 C 408.492188 343.789062 409.25 344.546875 410.183594 344.546875 " fill-opacity="1" fill-rule="nonzero"/><path fill="#100f0d" d="M 424.992188 337.988281 L 428.164062 337.988281 L 428.164062 341.160156 L 424.992188 341.160156 Z M 423.296875 344.546875 L 429.855469 344.546875 C 430.789062 344.546875 431.546875 343.789062 431.546875 342.855469 L 431.546875 336.296875 C 431.546875 335.363281 430.789062 334.605469 429.855469 334.605469 L 423.296875 334.605469 C 422.363281 334.605469 421.605469 335.363281 421.605469 336.296875 L 421.605469 342.855469 C 421.605469 343.789062 422.363281 344.546875 423.296875 344.546875 " fill-opacity="1" fill-rule="nonzero"/><path fill="#100f0d" d="M 363.769531 320.074219 L 359.652344 320.074219 L 359.652344 315.960938 L 363.769531 315.960938 Z M 365.460938 312.574219 L 357.960938 312.574219 C 357.023438 312.574219 356.269531 313.332031 356.269531 314.265625 L 356.269531 321.765625 C 356.269531 322.703125 357.023438 323.460938 357.960938 323.460938 L 365.460938 323.460938 C 366.394531 323.460938 367.152344 322.703125 367.152344 321.765625 L 367.152344 314.265625 C 367.152344 313.332031 366.394531 312.574219 365.460938 312.574219 " fill-opacity="1" fill-rule="nonzero"/><path fill="#100f0d" d="M 374.652344 315.960938 L 378.769531 315.960938 L 378.769531 320.074219 L 374.652344 320.074219 Z M 372.960938 323.460938 L 380.460938 323.460938 C 381.398438 323.460938 382.152344 322.703125 382.152344 321.765625 L 382.152344 314.265625 C 382.152344 313.332031 381.398438 312.574219 380.460938 312.574219 L 372.960938 312.574219 C 372.027344 312.574219 371.269531 313.332031 371.269531 314.265625 L 371.269531 321.765625 C 371.269531 322.703125 372.027344 323.460938 372.960938 323.460938 " fill-opacity="1" fill-rule="nonzero"/><path fill="#100f0d" d="M 389.65625 315.960938 L 393.773438 315.960938 L 393.773438 320.074219 L 389.65625 320.074219 Z M 387.960938 323.460938 L 395.464844 323.460938 C 396.398438 323.460938 397.15625 322.703125 397.15625 321.765625 L 397.15625 314.265625 C 397.15625 313.332031 396.398438 312.574219 395.464844 312.574219 L 387.960938 312.574219 C 387.027344 312.574219 386.269531 313.332031 386.269531 314.265625 L 386.269531 321.765625 C 386.269531 322.703125 387.027344 323.460938 387.960938 323.460938 " fill-opacity="1" fill-rule="nonzero"/><path fill="#100f0d" d="M 363.769531 335.078125 L 359.652344 335.078125 L 359.652344 330.960938 L 363.769531 330.960938 Z M 365.460938 327.574219 L 357.960938 327.574219 C 357.023438 327.574219 356.269531 328.332031 356.269531 329.269531 L 356.269531 336.769531 C 356.269531 337.703125 357.023438 338.460938 357.960938 338.460938 L 365.460938 338.460938 C 366.394531 338.460938 367.152344 337.703125 367.152344 336.769531 L 367.152344 329.269531 C 367.152344 328.332031 366.394531 327.574219 365.460938 327.574219 " fill-opacity="1" fill-rule="nonzero"/><path fill="#100f0d" d="M 374.652344 330.960938 L 378.769531 330.960938 L 378.769531 335.078125 L 374.652344 335.078125 Z M 372.960938 338.460938 L 380.460938 338.460938 C 381.398438 338.460938 382.152344 337.703125 382.152344 336.769531 L 382.152344 329.269531 C 382.152344 328.332031 381.398438 327.574219 380.460938 327.574219 L 372.960938 327.574219 C 372.027344 327.574219 371.269531 328.332031 371.269531 329.269531 L 371.269531 336.769531 C 371.269531 337.703125 372.027344 338.460938 372.960938 338.460938 " fill-opacity="1" fill-rule="nonzero"/><path fill="#100f0d" d="M 389.65625 330.960938 L 393.773438 330.960938 L 393.773438 335.078125 L 389.65625 335.078125 Z M 387.960938 338.460938 L 395.464844 338.460938 C 396.398438 338.460938 397.15625 337.703125 397.15625 336.769531 L 397.15625 329.269531 C 397.15625 328.332031 396.398438 327.574219 395.464844 327.574219 L 387.960938 327.574219 C 387.027344 327.574219 386.269531 328.332031 386.269531 329.269531 L 386.269531 336.769531 C 386.269531 337.703125 387.027344 338.460938 387.960938 338.460938 " fill-opacity="1" fill-rule="nonzero"/></svg>