<svg xmlns="http://www.w3.org/2000/svg" xmlns:xlink="http://www.w3.org/1999/xlink" width="600" zoomAndPan="magnify" viewBox="0 0 450 374.999991" height="500" preserveAspectRatio="xMidYMid meet" version="1.0"><defs><clipPath id="2cf4dba3b4"><path d="M 140.054688 102.554688 L 309.945312 102.554688 L 309.945312 272.445312 L 140.054688 272.445312 Z M 140.054688 102.554688 " clip-rule="nonzero"/></clipPath><clipPath id="4430870571"><path d="M 225 102.554688 C 178.085938 102.554688 140.054688 140.585938 140.054688 187.5 C 140.054688 234.414062 178.085938 272.445312 225 272.445312 C 271.914062 272.445312 309.945312 234.414062 309.945312 187.5 C 309.945312 140.585938 271.914062 102.554688 225 102.554688 Z M 225 102.554688 " clip-rule="nonzero"/></clipPath><clipPath id="a0a6e16d87"><path d="M 0.0546875 0.554688 L 169.945312 0.554688 L 169.945312 170.445312 L 0.0546875 170.445312 Z M 0.0546875 0.554688 " clip-rule="nonzero"/></clipPath><clipPath id="7eb14a6cd0"><path d="M 85 0.554688 C 38.085938 0.554688 0.0546875 38.585938 0.0546875 85.5 C 0.0546875 132.414062 38.085938 170.445312 85 170.445312 C 131.914062 170.445312 169.945312 132.414062 169.945312 85.5 C 169.945312 38.585938 131.914062 0.554688 85 0.554688 Z M 85 0.554688 " clip-rule="nonzero"/></clipPath><clipPath id="f4d1072aae"><rect x="0" width="170" y="0" height="171"/></clipPath><clipPath id="6a694424ef"><path d="M 37.5 44 L 123 44 L 123 102.398438 L 37.5 102.398438 Z M 37.5 44 " clip-rule="nonzero"/></clipPath><clipPath id="d005570ad9"><path d="M 43 7.898438 L 59 7.898438 L 59 59 L 43 59 Z M 43 7.898438 " clip-rule="nonzero"/></clipPath><clipPath id="4488ee16ff"><path d="M 351.453125 277.847656 L 438.453125 277.847656 L 438.453125 364.847656 L 351.453125 364.847656 Z M 351.453125 277.847656 " clip-rule="nonzero"/></clipPath></defs><path fill="#000000" d="M 138.886719 44.808594 L 147.09375 44.808594 C 148.363281 44.808594 149.589844 45.039062 150.769531 45.503906 L 149.402344 48.992188 C 148.660156 48.703125 147.890625 48.558594 147.09375 48.558594 L 138.886719 48.558594 Z M 154.558594 48.113281 C 156.300781 50.035156 157.171875 52.292969 157.171875 54.886719 L 157.171875 60.125 L 153.421875 60.125 L 153.421875 54.886719 C 153.421875 53.257812 152.875 51.839844 151.78125 50.632812 Z M 157.171875 63.875 L 157.171875 64.734375 C 157.171875 67.933594 158.042969 70.871094 159.789062 73.554688 L 156.644531 75.597656 C 154.496094 72.292969 153.421875 68.671875 153.421875 64.734375 L 153.421875 63.875 Z M 161.902344 76.164062 L 161.910156 76.175781 C 164.367188 78.628906 167.308594 80.140625 170.738281 80.699219 L 170.132812 84.402344 C 165.910156 83.710938 162.285156 81.851562 159.257812 78.824219 L 159.25 78.816406 Z M 174.179688 80.914062 L 185.429688 80.914062 L 185.429688 84.664062 L 174.179688 84.664062 Z M 189.179688 80.914062 L 200.429688 80.914062 L 200.429688 84.664062 L 189.179688 84.664062 Z M 204.355469 80.992188 C 208.546875 81.34375 212.328125 82.777344 215.703125 85.296875 L 213.460938 88.300781 C 210.660156 86.210938 207.519531 85.019531 204.042969 84.726562 Z M 218.746094 88.035156 C 221.609375 91.140625 223.433594 94.757812 224.214844 98.886719 L 220.53125 99.585938 C 219.882812 96.160156 218.367188 93.15625 215.988281 90.578125 Z M 224.605469 102.96875 L 224.605469 114.222656 L 220.855469 114.222656 L 220.855469 102.976562 Z M 224.605469 117.972656 L 224.605469 129.222656 L 220.855469 129.222656 L 220.855469 117.972656 Z M 224.605469 132.972656 L 224.605469 144.222656 L 220.855469 144.222656 L 220.855469 132.972656 Z M 224.605469 147.972656 L 224.605469 159.222656 L 220.855469 159.222656 L 220.855469 147.972656 Z M 224.605469 162.972656 L 224.605469 174.222656 L 220.855469 174.222656 L 220.855469 162.972656 Z M 224.605469 177.972656 L 224.605469 189.222656 L 220.855469 189.222656 L 220.855469 177.972656 Z M 224.605469 192.972656 L 224.605469 204.222656 L 220.855469 204.222656 L 220.855469 192.972656 Z M 224.605469 207.972656 L 224.605469 219.222656 L 220.855469 219.222656 L 220.855469 207.972656 Z M 224.605469 222.972656 L 224.605469 234.222656 L 220.855469 234.222656 L 220.855469 222.972656 Z M 224.605469 237.972656 L 224.605469 249.222656 L 220.855469 249.222656 L 220.855469 237.972656 Z M 224.605469 252.972656 L 224.605469 264.222656 L 220.855469 264.222656 L 220.855469 252.972656 Z M 224.605469 267.972656 L 224.605469 275.152344 C 224.605469 276.398438 224.730469 277.625 224.972656 278.832031 L 221.296875 279.578125 C 221.003906 278.125 220.855469 276.648438 220.855469 275.152344 L 220.855469 267.972656 Z M 225.960938 282.089844 C 227.277344 285.320312 229.355469 287.964844 232.191406 290.027344 L 229.984375 293.0625 C 226.574219 290.582031 224.074219 287.394531 222.488281 283.503906 Z M 235.113281 291.765625 C 237.589844 292.941406 240.214844 293.527344 242.980469 293.527344 L 245.289062 293.527344 L 245.289062 297.277344 L 242.980469 297.277344 C 239.652344 297.277344 236.492188 296.570312 233.503906 295.152344 Z M 249.039062 293.527344 L 260.289062 293.527344 L 260.289062 297.277344 L 249.039062 297.277344 Z M 264.039062 293.527344 L 266.027344 293.527344 C 269.511719 293.527344 272.777344 294.347656 275.828125 295.984375 L 274.054688 299.289062 C 271.558594 297.949219 268.882812 297.277344 266.027344 297.277344 L 264.039062 297.277344 Z M 279.242188 298.28125 C 282.527344 301 284.761719 304.394531 285.949219 308.464844 L 282.347656 309.511719 C 281.378906 306.179688 279.546875 303.398438 276.855469 301.171875 Z M 286.699219 312.511719 C 286.75 313.097656 286.773438 313.6875 286.773438 314.277344 C 286.773438 317.257812 287.503906 320.039062 288.957031 322.617188 L 285.691406 324.460938 C 283.914062 321.308594 283.023438 317.914062 283.023438 314.277344 C 283.023438 313.789062 283.003906 313.308594 282.964844 312.828125 Z M 290.898438 325.378906 C 293.183594 328.023438 296.003906 329.796875 299.355469 330.695312 L 298.382812 334.316406 C 294.289062 333.21875 290.847656 331.054688 288.0625 327.828125 Z M 302.683594 331.242188 C 303.042969 331.261719 303.410156 331.273438 303.773438 331.273438 L 313.832031 331.273438 L 313.832031 335.023438 L 303.773438 335.023438 C 303.328125 335.023438 302.886719 335.011719 302.445312 334.984375 Z M 317.582031 331.273438 L 328.832031 331.273438 L 328.832031 335.023438 L 317.582031 335.023438 Z M 332.582031 331.273438 L 339.878906 331.273438 L 339.878906 335.023438 L 332.582031 335.023438 Z M 332.582031 331.273438 " fill-opacity="1" fill-rule="nonzero"/><g clip-path="url(#2cf4dba3b4)"><g clip-path="url(#4430870571)"><g transform="matrix(1, 0, 0, 1, 140, 102)"><g clip-path="url(#f4d1072aae)"><g clip-path="url(#a0a6e16d87)"><g clip-path="url(#7eb14a6cd0)"><path fill="#222222" d="M 0.0546875 0.554688 L 169.945312 0.554688 L 169.945312 170.445312 L 0.0546875 170.445312 Z M 0.0546875 0.554688 " fill-opacity="1" fill-rule="nonzero"/></g></g></g></g></g></g><g clip-path="url(#6a694424ef)"><path fill="#000000" d="M 40.363281 99.457031 L 120.136719 99.457031 L 120.136719 66.332031 L 92.851562 48.367188 L 92.851562 61.332031 C 92.851562 61.832031 92.589844 62.296875 92.15625 62.558594 C 91.730469 62.816406 91.199219 62.832031 90.753906 62.59375 L 67.386719 50.179688 L 67.386719 62.894531 C 67.386719 63.417969 67.105469 63.894531 66.648438 64.144531 C 66.191406 64.398438 65.632812 64.382812 65.191406 64.101562 L 40.363281 48.320312 Z M 121.5625 102.320312 L 38.9375 102.320312 C 38.148438 102.320312 37.507812 101.675781 37.507812 100.886719 L 37.507812 45.71875 C 37.507812 45.199219 37.792969 44.714844 38.25 44.464844 C 38.707031 44.210938 39.257812 44.230469 39.703125 44.511719 L 64.53125 60.292969 L 64.53125 47.796875 C 64.53125 47.296875 64.792969 46.832031 65.222656 46.574219 C 65.652344 46.316406 66.1875 46.304688 66.628906 46.535156 L 89.996094 58.957031 L 89.996094 45.71875 C 89.996094 45.195312 90.285156 44.710938 90.746094 44.460938 C 91.210938 44.210938 91.769531 44.238281 92.207031 44.523438 L 122.347656 64.367188 C 122.75 64.628906 122.992188 65.078125 122.992188 65.558594 L 122.992188 100.886719 C 122.992188 101.675781 122.351562 102.320312 121.5625 102.320312 " fill-opacity="1" fill-rule="nonzero"/></g><path fill="#000000" d="M 50.734375 72.191406 C 50.472656 72.191406 50.257812 72.402344 50.257812 72.664062 L 50.257812 79.902344 C 50.257812 80.167969 50.472656 80.382812 50.734375 80.382812 L 62.894531 80.382812 C 63.160156 80.382812 63.371094 80.167969 63.371094 79.902344 L 63.371094 72.664062 C 63.371094 72.402344 63.160156 72.191406 62.894531 72.191406 Z M 62.894531 83.242188 L 50.734375 83.242188 C 48.898438 83.242188 47.402344 81.742188 47.402344 79.902344 L 47.402344 72.664062 C 47.402344 70.828125 48.898438 69.332031 50.734375 69.332031 L 62.894531 69.332031 C 64.730469 69.332031 66.222656 70.828125 66.222656 72.664062 L 66.222656 79.902344 C 66.222656 81.742188 64.730469 83.242188 62.894531 83.242188 " fill-opacity="1" fill-rule="nonzero"/><path fill="#000000" d="M 74.167969 72.191406 C 73.90625 72.191406 73.691406 72.402344 73.691406 72.664062 L 73.691406 79.902344 C 73.691406 80.167969 73.90625 80.382812 74.167969 80.382812 L 86.332031 80.382812 C 86.59375 80.382812 86.808594 80.167969 86.808594 79.902344 L 86.808594 72.664062 C 86.808594 72.402344 86.59375 72.191406 86.332031 72.191406 Z M 86.332031 83.242188 L 74.167969 83.242188 C 72.335938 83.242188 70.835938 81.742188 70.835938 79.902344 L 70.835938 72.664062 C 70.835938 70.828125 72.335938 69.332031 74.167969 69.332031 L 86.332031 69.332031 C 88.164062 69.332031 89.664062 70.828125 89.664062 72.664062 L 89.664062 79.902344 C 89.664062 81.742188 88.164062 83.242188 86.332031 83.242188 " fill-opacity="1" fill-rule="nonzero"/><path fill="#000000" d="M 97.605469 72.191406 C 97.339844 72.191406 97.128906 72.402344 97.128906 72.664062 L 97.128906 79.902344 C 97.128906 80.167969 97.339844 80.382812 97.605469 80.382812 L 109.765625 80.382812 C 110.027344 80.382812 110.242188 80.167969 110.242188 79.902344 L 110.242188 72.664062 C 110.242188 72.402344 110.027344 72.191406 109.765625 72.191406 Z M 109.765625 83.242188 L 97.605469 83.242188 C 95.769531 83.242188 94.277344 81.742188 94.277344 79.902344 L 94.277344 72.664062 C 94.277344 70.828125 95.769531 69.332031 97.605469 69.332031 L 109.765625 69.332031 C 111.601562 69.332031 113.097656 70.828125 113.097656 72.664062 L 113.097656 79.902344 C 113.097656 81.742188 111.601562 83.242188 109.765625 83.242188 " fill-opacity="1" fill-rule="nonzero"/><g clip-path="url(#d005570ad9)"><path fill="#000000" d="M 56.777344 58.488281 C 56.015625 58.488281 55.386719 57.890625 55.351562 57.125 L 53.273438 10.84375 L 48.296875 10.839844 L 47.414062 29.613281 C 47.179688 34.644531 46.9375 39.675781 46.757812 43.453125 C 46.613281 46.34375 46.527344 48.152344 46.398438 49.277344 C 46.414062 49.378906 46.425781 49.484375 46.425781 49.597656 L 46.355469 49.59375 C 46.355469 49.605469 46.351562 49.621094 46.351562 49.628906 L 46.425781 49.632812 L 46.347656 49.636719 C 46.128906 51.140625 45.789062 51.125 44.953125 51.101562 C 44.175781 51.074219 43.558594 50.332031 43.570312 49.546875 C 43.570312 49.457031 43.585938 49.375 43.597656 49.289062 C 43.773438 46.460938 45.023438 19.773438 45.507812 9.347656 C 45.542969 8.582031 46.167969 7.984375 46.933594 7.984375 L 54.636719 7.984375 C 55.398438 7.984375 56.027344 8.585938 56.0625 9.347656 L 58.203125 56.996094 C 58.242188 57.777344 57.628906 58.449219 56.839844 58.488281 L 56.777344 58.488281 " fill-opacity="1" fill-rule="nonzero"/></g><g clip-path="url(#4488ee16ff)"><path fill="#000000" d="M 438.410156 309.964844 L 438.410156 302.921875 C 438.410156 302.910156 438.410156 302.898438 438.410156 302.886719 C 438.410156 302.816406 438.402344 302.742188 438.390625 302.671875 C 438.371094 302.589844 438.347656 302.511719 438.316406 302.4375 L 438.316406 302.429688 L 438.3125 302.417969 L 431.378906 285.785156 L 431.378906 279.097656 C 431.378906 278.925781 431.347656 278.761719 431.28125 278.605469 C 431.21875 278.449219 431.125 278.308594 431.003906 278.191406 C 430.882812 278.070312 430.746094 277.976562 430.589844 277.914062 C 430.433594 277.847656 430.269531 277.816406 430.097656 277.816406 L 359.734375 277.816406 C 359.566406 277.816406 359.402344 277.847656 359.246094 277.914062 C 359.089844 277.976562 358.949219 278.070312 358.832031 278.191406 C 358.710938 278.3125 358.617188 278.449219 358.554688 278.605469 C 358.488281 278.761719 358.457031 278.925781 358.457031 279.097656 L 358.457031 285.785156 L 351.523438 302.421875 L 351.523438 302.429688 C 351.523438 302.4375 351.523438 302.441406 351.519531 302.449219 C 351.460938 302.589844 351.429688 302.734375 351.429688 302.886719 C 351.429688 302.902344 351.429688 302.910156 351.429688 302.921875 L 351.429688 309.964844 C 351.429688 310.457031 351.476562 310.941406 351.5625 311.425781 C 351.648438 311.910156 351.777344 312.382812 351.949219 312.84375 C 352.117188 313.304688 352.328125 313.746094 352.578125 314.167969 C 352.828125 314.589844 353.109375 314.988281 353.429688 315.363281 C 353.75 315.734375 354.097656 316.078125 354.480469 316.390625 C 354.859375 316.699219 355.261719 316.976562 355.691406 317.214844 C 356.121094 317.457031 356.566406 317.65625 357.03125 317.816406 C 357.496094 317.976562 357.96875 318.09375 358.457031 318.171875 L 358.457031 355.300781 L 352.699219 355.300781 C 352.53125 355.300781 352.367188 355.332031 352.210938 355.398438 C 352.054688 355.460938 351.914062 355.554688 351.796875 355.675781 C 351.675781 355.796875 351.582031 355.933594 351.519531 356.089844 C 351.453125 356.246094 351.421875 356.410156 351.421875 356.582031 L 351.421875 363.523438 C 351.421875 363.695312 351.453125 363.859375 351.519531 364.015625 C 351.582031 364.171875 351.675781 364.308594 351.796875 364.429688 C 351.914062 364.550781 352.054688 364.644531 352.210938 364.707031 C 352.367188 364.773438 352.53125 364.804688 352.699219 364.804688 L 437.128906 364.804688 C 437.300781 364.804688 437.464844 364.773438 437.621094 364.707031 C 437.777344 364.644531 437.914062 364.550781 438.035156 364.429688 C 438.15625 364.308594 438.246094 364.171875 438.3125 364.015625 C 438.378906 363.859375 438.410156 363.695312 438.410156 363.523438 L 438.410156 356.578125 C 438.410156 356.410156 438.378906 356.246094 438.3125 356.089844 C 438.246094 355.929688 438.15625 355.792969 438.035156 355.671875 C 437.914062 355.554688 437.777344 355.460938 437.621094 355.394531 C 437.464844 355.332031 437.300781 355.296875 437.128906 355.296875 L 431.375 355.296875 L 431.375 318.171875 C 431.859375 318.09375 432.335938 317.976562 432.800781 317.816406 C 433.265625 317.65625 433.710938 317.457031 434.140625 317.21875 C 434.570312 316.976562 434.976562 316.703125 435.355469 316.390625 C 435.738281 316.082031 436.085938 315.738281 436.40625 315.367188 C 436.726562 314.992188 437.011719 314.59375 437.261719 314.171875 C 437.507812 313.746094 437.71875 313.304688 437.890625 312.84375 C 438.0625 312.382812 438.191406 311.910156 438.277344 311.425781 C 438.367188 310.945312 438.410156 310.457031 438.410156 309.964844 Z M 435.847656 309.964844 C 435.84375 310.339844 435.804688 310.710938 435.726562 311.078125 C 435.652344 311.445312 435.539062 311.800781 435.394531 312.148438 C 435.246094 312.492188 435.066406 312.820312 434.855469 313.132812 C 434.644531 313.441406 434.40625 313.730469 434.140625 313.992188 C 433.875 314.257812 433.585938 314.492188 433.269531 314.699219 C 432.957031 314.90625 432.628906 315.082031 432.28125 315.222656 C 431.933594 315.367188 431.578125 315.472656 431.207031 315.546875 C 430.839844 315.617188 430.46875 315.65625 430.09375 315.65625 C 429.71875 315.65625 429.347656 315.617188 428.980469 315.546875 C 428.609375 315.472656 428.253906 315.367188 427.90625 315.222656 C 427.558594 315.082031 427.230469 314.90625 426.917969 314.699219 C 426.605469 314.492188 426.3125 314.257812 426.046875 313.992188 C 425.78125 313.730469 425.542969 313.441406 425.332031 313.132812 C 425.121094 312.820312 424.941406 312.492188 424.796875 312.148438 C 424.648438 311.800781 424.539062 311.445312 424.460938 311.078125 C 424.382812 310.710938 424.34375 310.339844 424.339844 309.964844 L 424.339844 304.203125 L 435.847656 304.203125 Z M 410.265625 304.203125 L 421.777344 304.203125 L 421.777344 309.964844 C 421.773438 310.339844 421.734375 310.710938 421.65625 311.078125 C 421.578125 311.445312 421.46875 311.800781 421.320312 312.148438 C 421.175781 312.492188 420.996094 312.820312 420.785156 313.132812 C 420.574219 313.441406 420.335938 313.730469 420.070312 313.992188 C 419.800781 314.257812 419.511719 314.492188 419.199219 314.699219 C 418.886719 314.90625 418.558594 315.082031 418.210938 315.222656 C 417.863281 315.367188 417.503906 315.472656 417.136719 315.546875 C 416.769531 315.617188 416.398438 315.65625 416.023438 315.65625 C 415.648438 315.65625 415.277344 315.617188 414.90625 315.546875 C 414.539062 315.472656 414.183594 315.367188 413.835938 315.222656 C 413.488281 315.082031 413.15625 314.90625 412.84375 314.699219 C 412.53125 314.492188 412.242188 314.257812 411.976562 313.992188 C 411.707031 313.730469 411.46875 313.441406 411.257812 313.132812 C 411.050781 312.820312 410.871094 312.492188 410.722656 312.148438 C 410.578125 311.800781 410.464844 311.445312 410.390625 311.078125 C 410.3125 310.710938 410.273438 310.339844 410.265625 309.964844 Z M 408.988281 301.644531 L 354.621094 301.644531 L 360.589844 287.320312 L 429.242188 287.320312 L 435.210938 301.644531 Z M 396.195312 304.203125 L 407.707031 304.203125 L 407.707031 309.964844 C 407.703125 310.339844 407.660156 310.710938 407.585938 311.078125 C 407.507812 311.445312 407.394531 311.800781 407.25 312.148438 C 407.101562 312.492188 406.925781 312.820312 406.714844 313.132812 C 406.503906 313.441406 406.265625 313.730469 405.996094 313.992188 C 405.730469 314.257812 405.441406 314.492188 405.128906 314.699219 C 404.816406 314.90625 404.484375 315.082031 404.140625 315.222656 C 403.792969 315.367188 403.433594 315.472656 403.066406 315.546875 C 402.699219 315.617188 402.328125 315.65625 401.949219 315.65625 C 401.574219 315.65625 401.203125 315.617188 400.835938 315.546875 C 400.46875 315.472656 400.109375 315.367188 399.761719 315.222656 C 399.417969 315.082031 399.085938 314.90625 398.773438 314.699219 C 398.460938 314.492188 398.171875 314.257812 397.902344 313.992188 C 397.636719 313.730469 397.398438 313.441406 397.1875 313.132812 C 396.976562 312.820312 396.800781 312.492188 396.652344 312.148438 C 396.507812 311.800781 396.394531 311.445312 396.316406 311.078125 C 396.242188 310.710938 396.199219 310.339844 396.195312 309.964844 Z M 382.125 309.964844 L 382.125 304.203125 L 393.636719 304.203125 L 393.636719 309.964844 C 393.628906 310.339844 393.589844 310.710938 393.511719 311.078125 C 393.4375 311.445312 393.324219 311.800781 393.179688 312.148438 C 393.03125 312.492188 392.855469 312.820312 392.644531 313.132812 C 392.433594 313.441406 392.195312 313.730469 391.925781 313.992188 C 391.660156 314.257812 391.371094 314.492188 391.058594 314.699219 C 390.746094 314.90625 390.414062 315.082031 390.070312 315.222656 C 389.722656 315.367188 389.363281 315.476562 388.996094 315.546875 C 388.628906 315.621094 388.257812 315.65625 387.882812 315.65625 C 387.507812 315.65625 387.132812 315.621094 386.765625 315.546875 C 386.398438 315.476562 386.039062 315.367188 385.695312 315.226562 C 385.347656 315.082031 385.015625 314.910156 384.703125 314.703125 C 384.390625 314.496094 384.101562 314.257812 383.835938 313.996094 C 383.566406 313.730469 383.328125 313.445312 383.117188 313.132812 C 382.90625 312.824219 382.726562 312.496094 382.582031 312.152344 C 382.433594 311.804688 382.324219 311.449219 382.246094 311.082031 C 382.167969 310.714844 382.128906 310.34375 382.125 309.96875 Z M 368.054688 304.203125 L 379.5625 304.203125 L 379.5625 309.96875 C 379.558594 310.34375 379.519531 310.714844 379.441406 311.082031 C 379.363281 311.449219 379.253906 311.804688 379.105469 312.152344 C 378.960938 312.496094 378.78125 312.824219 378.570312 313.136719 C 378.359375 313.445312 378.121094 313.734375 377.855469 313.996094 C 377.585938 314.261719 377.296875 314.496094 376.984375 314.703125 C 376.671875 314.910156 376.339844 315.085938 375.992188 315.226562 C 375.648438 315.367188 375.289062 315.476562 374.921875 315.550781 C 374.554688 315.621094 374.179688 315.65625 373.804688 315.65625 C 373.429688 315.65625 373.058594 315.621094 372.691406 315.546875 C 372.324219 315.476562 371.964844 315.367188 371.617188 315.226562 C 371.273438 315.082031 370.941406 314.90625 370.628906 314.699219 C 370.316406 314.492188 370.027344 314.257812 369.761719 313.992188 C 369.492188 313.730469 369.253906 313.441406 369.042969 313.132812 C 368.832031 312.820312 368.65625 312.492188 368.507812 312.148438 C 368.363281 311.800781 368.25 311.445312 368.175781 311.078125 C 368.097656 310.710938 368.058594 310.339844 368.054688 309.964844 Z M 361.015625 280.375 L 428.8125 280.375 L 428.8125 284.757812 L 361.015625 284.757812 Z M 353.980469 309.964844 L 353.980469 304.203125 L 365.492188 304.203125 L 365.492188 309.964844 C 365.488281 310.339844 365.445312 310.710938 365.371094 311.078125 C 365.292969 311.445312 365.183594 311.800781 365.035156 312.148438 C 364.890625 312.492188 364.710938 312.820312 364.5 313.132812 C 364.289062 313.441406 364.050781 313.726562 363.785156 313.992188 C 363.515625 314.257812 363.226562 314.492188 362.914062 314.699219 C 362.601562 314.90625 362.269531 315.082031 361.925781 315.222656 C 361.578125 315.367188 361.21875 315.472656 360.851562 315.546875 C 360.484375 315.617188 360.113281 315.65625 359.738281 315.65625 C 359.363281 315.65625 358.988281 315.617188 358.621094 315.546875 C 358.253906 315.472656 357.894531 315.367188 357.550781 315.222656 C 357.203125 315.082031 356.871094 314.90625 356.558594 314.699219 C 356.246094 314.492188 355.957031 314.257812 355.691406 313.992188 C 355.421875 313.726562 355.183594 313.441406 354.972656 313.132812 C 354.761719 312.820312 354.585938 312.492188 354.4375 312.148438 C 354.292969 311.800781 354.179688 311.445312 354.101562 311.078125 C 354.027344 310.710938 353.984375 310.339844 353.980469 309.964844 Z M 435.847656 362.246094 L 353.980469 362.246094 L 353.980469 357.859375 L 435.847656 357.859375 Z M 418.574219 355.300781 L 400.574219 355.300781 L 400.574219 325.03125 L 418.574219 325.03125 Z M 421.136719 355.300781 L 421.136719 323.75 C 421.136719 323.582031 421.101562 323.417969 421.039062 323.261719 C 420.972656 323.105469 420.878906 322.964844 420.761719 322.84375 C 420.640625 322.726562 420.5 322.632812 420.34375 322.566406 C 420.1875 322.503906 420.023438 322.472656 419.855469 322.472656 L 399.292969 322.472656 C 399.125 322.472656 398.960938 322.503906 398.804688 322.566406 C 398.648438 322.632812 398.507812 322.726562 398.386719 322.847656 C 398.269531 322.964844 398.175781 323.105469 398.109375 323.261719 C 398.046875 323.417969 398.011719 323.582031 398.011719 323.75 L 398.011719 355.300781 L 361.015625 355.300781 L 361.015625 318.171875 C 362.207031 317.984375 363.300781 317.5625 364.304688 316.898438 C 365.308594 316.238281 366.132812 315.398438 366.773438 314.378906 C 366.957031 314.675781 367.160156 314.960938 367.382812 315.230469 C 367.605469 315.503906 367.84375 315.757812 368.097656 316 C 368.351562 316.242188 368.621094 316.464844 368.902344 316.671875 C 369.183594 316.878906 369.480469 317.070312 369.785156 317.238281 C 370.09375 317.410156 370.40625 317.558594 370.734375 317.6875 C 371.058594 317.820312 371.390625 317.929688 371.730469 318.015625 C 372.070312 318.105469 372.414062 318.167969 372.761719 318.214844 C 373.109375 318.257812 373.457031 318.28125 373.808594 318.28125 C 374.160156 318.28125 374.507812 318.257812 374.855469 318.214844 C 375.203125 318.167969 375.546875 318.105469 375.886719 318.015625 C 376.226562 317.929688 376.558594 317.820312 376.882812 317.6875 C 377.207031 317.558594 377.523438 317.410156 377.832031 317.238281 C 378.136719 317.070312 378.433594 316.878906 378.714844 316.671875 C 378.996094 316.464844 379.265625 316.242188 379.519531 316 C 379.773438 315.757812 380.011719 315.503906 380.234375 315.230469 C 380.453125 314.960938 380.660156 314.675781 380.84375 314.378906 C 381.03125 314.675781 381.234375 314.960938 381.453125 315.230469 C 381.675781 315.503906 381.914062 315.757812 382.167969 316 C 382.421875 316.242188 382.691406 316.464844 382.972656 316.671875 C 383.257812 316.878906 383.550781 317.070312 383.855469 317.238281 C 384.164062 317.410156 384.480469 317.558594 384.804688 317.6875 C 385.128906 317.820312 385.460938 317.929688 385.800781 318.015625 C 386.140625 318.105469 386.484375 318.167969 386.832031 318.214844 C 387.179688 318.257812 387.527344 318.28125 387.878906 318.28125 C 388.230469 318.28125 388.578125 318.257812 388.925781 318.214844 C 389.273438 318.167969 389.617188 318.105469 389.957031 318.015625 C 390.296875 317.929688 390.628906 317.820312 390.953125 317.6875 C 391.28125 317.558594 391.597656 317.410156 391.902344 317.238281 C 392.207031 317.070312 392.503906 316.878906 392.785156 316.671875 C 393.070312 316.464844 393.335938 316.242188 393.589844 316 C 393.84375 315.757812 394.082031 315.503906 394.304688 315.230469 C 394.527344 314.960938 394.730469 314.675781 394.914062 314.378906 C 395.101562 314.675781 395.304688 314.960938 395.527344 315.230469 C 395.746094 315.503906 395.984375 315.757812 396.238281 316 C 396.492188 316.242188 396.761719 316.464844 397.042969 316.671875 C 397.328125 316.878906 397.621094 317.070312 397.929688 317.238281 C 398.234375 317.410156 398.550781 317.558594 398.875 317.6875 C 399.203125 317.820312 399.535156 317.929688 399.875 318.015625 C 400.210938 318.105469 400.554688 318.167969 400.902344 318.214844 C 401.25 318.257812 401.601562 318.28125 401.949219 318.28125 C 402.300781 318.28125 402.652344 318.257812 403 318.214844 C 403.347656 318.167969 403.6875 318.105469 404.027344 318.015625 C 404.367188 317.929688 404.699219 317.820312 405.027344 317.6875 C 405.351562 317.558594 405.667969 317.410156 405.972656 317.238281 C 406.28125 317.070312 406.574219 316.878906 406.855469 316.671875 C 407.140625 316.464844 407.410156 316.242188 407.664062 316 C 407.917969 315.757812 408.15625 315.503906 408.375 315.230469 C 408.597656 314.960938 408.800781 314.675781 408.988281 314.378906 C 409.171875 314.675781 409.375 314.960938 409.597656 315.230469 C 409.820312 315.503906 410.058594 315.757812 410.3125 316 C 410.566406 316.242188 410.832031 316.464844 411.117188 316.675781 C 411.398438 316.882812 411.691406 317.070312 412 317.238281 C 412.304688 317.410156 412.621094 317.558594 412.949219 317.691406 C 413.273438 317.820312 413.605469 317.929688 413.945312 318.015625 C 414.285156 318.105469 414.628906 318.171875 414.976562 318.214844 C 415.324219 318.257812 415.671875 318.28125 416.023438 318.28125 C 416.371094 318.28125 416.722656 318.257812 417.070312 318.214844 C 417.417969 318.171875 417.761719 318.105469 418.101562 318.015625 C 418.441406 317.929688 418.773438 317.820312 419.097656 317.691406 C 419.421875 317.558594 419.738281 317.410156 420.046875 317.238281 C 420.351562 317.070312 420.644531 316.882812 420.929688 316.675781 C 421.210938 316.464844 421.480469 316.242188 421.734375 316 C 421.988281 315.757812 422.226562 315.503906 422.449219 315.230469 C 422.667969 314.960938 422.871094 314.675781 423.058594 314.378906 C 423.699219 315.398438 424.519531 316.238281 425.523438 316.898438 C 426.527344 317.5625 427.625 317.984375 428.8125 318.171875 L 428.8125 355.300781 Z M 421.136719 355.300781 " fill-opacity="1" fill-rule="nonzero"/></g><path fill="#000000" d="M 391.125 322.472656 L 369.976562 322.472656 C 369.804688 322.472656 369.644531 322.503906 369.484375 322.566406 C 369.328125 322.632812 369.191406 322.726562 369.070312 322.847656 C 368.949219 322.964844 368.859375 323.105469 368.792969 323.261719 C 368.726562 323.417969 368.695312 323.582031 368.695312 323.75 L 368.695312 344.902344 C 368.695312 345.070312 368.726562 345.234375 368.792969 345.390625 C 368.859375 345.550781 368.949219 345.6875 369.070312 345.808594 C 369.191406 345.925781 369.328125 346.019531 369.484375 346.085938 C 369.644531 346.148438 369.804688 346.183594 369.976562 346.183594 L 391.125 346.183594 C 391.296875 346.183594 391.460938 346.148438 391.617188 346.085938 C 391.773438 346.019531 391.914062 345.929688 392.03125 345.808594 C 392.152344 345.6875 392.246094 345.550781 392.308594 345.390625 C 392.375 345.234375 392.40625 345.070312 392.40625 344.902344 L 392.40625 323.75 C 392.40625 323.582031 392.375 323.417969 392.308594 323.261719 C 392.246094 323.105469 392.152344 322.964844 392.03125 322.84375 C 391.914062 322.726562 391.773438 322.632812 391.617188 322.566406 C 391.460938 322.503906 391.296875 322.472656 391.125 322.472656 Z M 389.847656 343.621094 L 371.257812 343.621094 L 371.257812 325.03125 L 389.847656 325.03125 Z M 389.847656 343.621094 " fill-opacity="1" fill-rule="nonzero"/><path fill="#000000" d="M 375.019531 290.363281 L 364.367188 290.363281 C 364.195312 290.363281 364.03125 290.398438 363.875 290.460938 C 363.71875 290.527344 363.582031 290.621094 363.460938 290.738281 C 363.339844 290.859375 363.246094 291 363.183594 291.15625 C 363.117188 291.3125 363.085938 291.476562 363.085938 291.644531 C 363.085938 291.816406 363.117188 291.980469 363.183594 292.136719 C 363.246094 292.292969 363.339844 292.429688 363.460938 292.550781 C 363.582031 292.671875 363.71875 292.761719 363.875 292.828125 C 364.03125 292.894531 364.195312 292.925781 364.367188 292.925781 L 375.019531 292.925781 C 375.1875 292.925781 375.351562 292.894531 375.507812 292.828125 C 375.664062 292.761719 375.804688 292.671875 375.925781 292.550781 C 376.042969 292.429688 376.136719 292.292969 376.203125 292.136719 C 376.265625 291.980469 376.300781 291.816406 376.300781 291.644531 C 376.300781 291.476562 376.265625 291.3125 376.203125 291.15625 C 376.136719 291 376.042969 290.859375 375.925781 290.738281 C 375.804688 290.621094 375.664062 290.527344 375.507812 290.460938 C 375.351562 290.398438 375.1875 290.363281 375.019531 290.363281 Z M 375.019531 290.363281 " fill-opacity="1" fill-rule="nonzero"/><path fill="#000000" d="M 383.121094 290.363281 L 380.273438 290.363281 C 380.101562 290.363281 379.9375 290.398438 379.78125 290.460938 C 379.625 290.527344 379.488281 290.621094 379.367188 290.738281 C 379.246094 290.859375 379.15625 291 379.089844 291.15625 C 379.023438 291.3125 378.992188 291.476562 378.992188 291.644531 C 378.992188 291.816406 379.023438 291.980469 379.089844 292.136719 C 379.15625 292.292969 379.246094 292.429688 379.367188 292.550781 C 379.488281 292.671875 379.625 292.761719 379.78125 292.828125 C 379.9375 292.894531 380.101562 292.925781 380.273438 292.925781 L 383.121094 292.925781 C 383.292969 292.925781 383.453125 292.894531 383.613281 292.828125 C 383.769531 292.761719 383.90625 292.671875 384.027344 292.550781 C 384.148438 292.429688 384.238281 292.292969 384.304688 292.136719 C 384.371094 291.980469 384.402344 291.816406 384.402344 291.644531 C 384.402344 291.476562 384.371094 291.3125 384.304688 291.15625 C 384.238281 291 384.148438 290.859375 384.027344 290.738281 C 383.90625 290.621094 383.769531 290.527344 383.613281 290.460938 C 383.453125 290.398438 383.292969 290.363281 383.121094 290.363281 Z M 383.121094 290.363281 " fill-opacity="1" fill-rule="nonzero"/></svg>