<svg xmlns="http://www.w3.org/2000/svg" xmlns:xlink="http://www.w3.org/1999/xlink" width="300" zoomAndPan="magnify" viewBox="0 0 224.87999 225" height="300" preserveAspectRatio="xMidYMid meet" version="1.0"><defs><clipPath id="da799941b7"><path d="M 4.679688 4.742188 L 220.566406 4.742188 L 220.566406 220.625 L 4.679688 220.625 Z M 4.679688 4.742188 " clip-rule="nonzero"/></clipPath><clipPath id="aa73720b45"><path d="M 126.441406 134.371094 L 151.09375 134.371094 L 151.09375 163.457031 L 126.441406 163.457031 Z M 126.441406 134.371094 " clip-rule="nonzero"/></clipPath><clipPath id="8b8745e2bf"><path d="M 136.933594 134.371094 L 140.597656 134.371094 C 146.394531 134.371094 151.09375 139.070312 151.09375 144.867188 L 151.09375 152.960938 C 151.09375 158.757812 146.394531 163.453125 140.597656 163.453125 L 136.933594 163.453125 C 131.136719 163.453125 126.441406 158.757812 126.441406 152.960938 L 126.441406 144.867188 C 126.441406 139.070312 131.136719 134.371094 136.933594 134.371094 Z M 136.933594 134.371094 " clip-rule="nonzero"/></clipPath><clipPath id="53fb1c88de"><path d="M 0.441406 0.371094 L 25.09375 0.371094 L 25.09375 29.457031 L 0.441406 29.457031 Z M 0.441406 0.371094 " clip-rule="nonzero"/></clipPath><clipPath id="a7386714b1"><path d="M 10.933594 0.371094 L 14.597656 0.371094 C 20.394531 0.371094 25.09375 5.070312 25.09375 10.867188 L 25.09375 18.960938 C 25.09375 24.757812 20.394531 29.453125 14.597656 29.453125 L 10.933594 29.453125 C 5.136719 29.453125 0.441406 24.757812 0.441406 18.960938 L 0.441406 10.867188 C 0.441406 5.070312 5.136719 0.371094 10.933594 0.371094 Z M 10.933594 0.371094 " clip-rule="nonzero"/></clipPath><clipPath id="7a6459b763"><rect x="0" width="26" y="0" height="30"/></clipPath></defs><g clip-path="url(#da799941b7)"><path fill="#000000" d="M 8.277344 220.625 L 116.222656 220.625 C 117.148438 220.613281 117.953125 220.289062 118.632812 219.652344 L 161.808594 180.074219 C 162.585938 179.371094 162.984375 178.496094 162.996094 177.449219 L 162.996094 127.074219 L 180.988281 127.074219 C 181.804688 127.074219 182.535156 126.820312 183.183594 126.320312 L 219.164062 98.613281 C 219.605469 98.273438 219.949219 97.855469 220.195312 97.355469 C 220.441406 96.855469 220.5625 96.328125 220.566406 95.773438 L 220.566406 22.730469 C 220.566406 22.253906 220.472656 21.796875 220.292969 21.355469 C 220.109375 20.914062 219.847656 20.523438 219.511719 20.1875 C 219.175781 19.851562 218.785156 19.589844 218.34375 19.40625 C 217.902344 19.222656 217.445312 19.132812 216.96875 19.132812 L 127.015625 19.132812 C 126.019531 19.128906 125.167969 19.476562 124.460938 20.175781 L 116.222656 28.632812 L 116.222656 8.339844 C 116.214844 7.945312 116.152344 7.5625 116.042969 7.1875 C 115.921875 6.832031 115.75 6.5 115.523438 6.195312 C 115.300781 5.894531 115.035156 5.632812 114.726562 5.414062 C 114.421875 5.195312 114.085938 5.027344 113.726562 4.910156 C 113.367188 4.796875 113 4.738281 112.625 4.742188 L 38.070312 4.742188 C 37.21875 4.746094 36.460938 5.023438 35.804688 5.570312 L 9.394531 27.15625 C 9.015625 27.515625 8.730469 27.9375 8.535156 28.421875 C 8.339844 28.90625 8.253906 29.40625 8.277344 29.925781 L 8.277344 94.691406 C 8.277344 95.171875 8.371094 95.628906 8.554688 96.070312 C 8.734375 96.511719 8.996094 96.898438 9.332031 97.238281 C 9.671875 97.574219 10.058594 97.835938 10.5 98.015625 C 10.941406 98.199219 11.398438 98.289062 11.878906 98.289062 L 22.671875 98.289062 L 5.867188 113.617188 C 5.078125 114.332031 4.683594 115.21875 4.679688 116.28125 L 4.679688 217.027344 C 4.679688 217.503906 4.773438 217.964844 4.953125 218.40625 C 5.136719 218.84375 5.398438 219.234375 5.734375 219.570312 C 6.070312 219.910156 6.460938 220.167969 6.902344 220.351562 C 7.34375 220.535156 7.800781 220.625 8.277344 220.625 Z M 114.925781 112.683594 L 71.75 112.683594 L 103.414062 83.898438 L 149.46875 83.898438 Z M 155.800781 175.867188 L 119.820312 208.859375 L 119.820312 117.972656 L 155.800781 88 Z M 155.800781 76.703125 L 127.015625 76.703125 L 127.015625 69.507812 L 155.800781 69.507812 Z M 177.390625 119.878906 L 162.996094 119.878906 L 162.996094 65.910156 C 162.996094 65.429688 162.90625 64.972656 162.722656 64.53125 C 162.539062 64.089844 162.28125 63.703125 161.941406 63.363281 C 161.605469 63.027344 161.214844 62.765625 160.773438 62.585938 C 160.335938 62.402344 159.875 62.308594 159.398438 62.308594 L 123.417969 62.308594 C 122.941406 62.308594 122.480469 62.402344 122.039062 62.585938 C 121.601562 62.765625 121.210938 63.027344 120.875 63.363281 C 120.535156 63.703125 120.277344 64.089844 120.09375 64.53125 C 119.910156 64.972656 119.820312 65.429688 119.820312 65.910156 L 119.820312 76.703125 L 101.828125 76.703125 L 101.828125 58.710938 L 177.390625 58.710938 Z M 213.371094 94.007812 L 184.585938 116.28125 L 184.585938 56.734375 L 213.371094 30.828125 Z M 207.578125 26.328125 L 179.621094 51.515625 L 149.070312 51.515625 L 173.25 26.328125 Z M 128.417969 26.328125 L 163.210938 26.328125 L 139.03125 51.515625 L 103.304688 51.515625 Z M 109.023438 35.828125 L 95.855469 48.960938 C 95.082031 49.636719 94.675781 50.488281 94.632812 51.515625 L 94.632812 76.703125 L 87.4375 76.703125 L 87.796875 31.726562 L 109.023438 15.535156 Z M 101.828125 11.9375 L 82.867188 26.328125 L 57.394531 26.328125 L 74.195312 11.9375 Z M 39.367188 11.9375 L 63.113281 11.9375 L 46.347656 26.328125 L 21.773438 26.328125 Z M 15.476562 91.09375 L 15.476562 33.527344 L 80.457031 33.527344 L 80.242188 76.703125 L 47.859375 76.703125 C 46.933594 76.703125 46.128906 77.015625 45.445312 77.636719 L 29.867188 91.957031 L 29.867188 91.09375 Z M 49.441406 83.898438 L 92.617188 83.898438 L 60.953125 112.683594 L 17.777344 112.683594 Z M 11.878906 119.878906 L 112.625 119.878906 L 112.625 213.429688 L 11.878906 213.429688 Z M 11.878906 119.878906 " fill-opacity="1" fill-rule="nonzero"/></g><path fill="#000000" d="M 87.4375 130.671875 L 37.0625 130.671875 C 36.585938 130.671875 36.128906 130.765625 35.6875 130.949219 C 35.246094 131.128906 34.855469 131.390625 34.519531 131.726562 C 34.183594 132.066406 33.921875 132.453125 33.738281 132.894531 C 33.558594 133.335938 33.464844 133.792969 33.464844 134.273438 L 33.464844 148.664062 C 33.464844 149.140625 33.558594 149.601562 33.738281 150.042969 C 33.921875 150.480469 34.183594 150.871094 34.519531 151.207031 C 34.855469 151.546875 35.246094 151.804688 35.6875 151.988281 C 36.128906 152.171875 36.585938 152.261719 37.0625 152.261719 L 87.4375 152.261719 C 87.914062 152.261719 88.371094 152.171875 88.8125 151.988281 C 89.253906 151.804688 89.644531 151.546875 89.980469 151.207031 C 90.316406 150.871094 90.578125 150.480469 90.761719 150.042969 C 90.945312 149.601562 91.035156 149.140625 91.035156 148.664062 L 91.035156 134.273438 C 91.035156 133.792969 90.945312 133.335938 90.761719 132.894531 C 90.578125 132.453125 90.316406 132.066406 89.980469 131.726562 C 89.644531 131.390625 89.253906 131.128906 88.8125 130.949219 C 88.371094 130.765625 87.914062 130.671875 87.4375 130.671875 Z M 83.839844 145.066406 L 40.660156 145.066406 L 40.660156 137.871094 L 83.839844 137.871094 Z M 83.839844 145.066406 " fill-opacity="1" fill-rule="nonzero"/><path fill="#000000" d="M 64.554688 160.285156 C 64.230469 160.015625 63.871094 159.808594 63.476562 159.667969 C 63.078125 159.523438 62.671875 159.453125 62.25 159.453125 C 61.828125 159.453125 61.421875 159.523438 61.027344 159.667969 C 60.628906 159.808594 60.269531 160.015625 59.949219 160.285156 L 38.359375 178.277344 C 38.074219 178.511719 37.832031 178.789062 37.632812 179.097656 C 37.433594 179.410156 37.285156 179.746094 37.1875 180.101562 C 37.089844 180.460938 37.050781 180.824219 37.066406 181.195312 C 37.082031 181.5625 37.152344 181.921875 37.28125 182.269531 C 37.40625 182.617188 37.582031 182.9375 37.804688 183.230469 C 38.03125 183.527344 38.292969 183.777344 38.59375 183.992188 C 38.898438 184.203125 39.226562 184.367188 39.578125 184.476562 C 39.929688 184.589844 40.292969 184.644531 40.660156 184.644531 L 51.457031 184.644531 L 51.457031 202.636719 C 51.457031 203.113281 51.546875 203.570312 51.730469 204.011719 C 51.914062 204.453125 52.171875 204.84375 52.511719 205.179688 C 52.847656 205.515625 53.234375 205.777344 53.675781 205.960938 C 54.117188 206.140625 54.578125 206.234375 55.054688 206.234375 L 69.445312 206.234375 C 69.921875 206.234375 70.382812 206.140625 70.824219 205.960938 C 71.265625 205.777344 71.652344 205.515625 71.992188 205.179688 C 72.328125 204.84375 72.589844 204.453125 72.769531 204.011719 C 72.953125 203.570312 73.042969 203.113281 73.042969 202.636719 L 73.042969 184.644531 L 83.839844 184.644531 C 84.207031 184.644531 84.570312 184.589844 84.921875 184.476562 C 85.273438 184.367188 85.601562 184.203125 85.90625 183.992188 C 86.207031 183.777344 86.472656 183.527344 86.695312 183.230469 C 86.921875 182.9375 87.09375 182.617188 87.222656 182.269531 C 87.347656 181.921875 87.417969 181.5625 87.433594 181.195312 C 87.449219 180.824219 87.410156 180.460938 87.3125 180.101562 C 87.214844 179.746094 87.066406 179.410156 86.867188 179.097656 C 86.667969 178.789062 86.425781 178.511719 86.140625 178.277344 Z M 69.445312 177.449219 C 68.96875 177.449219 68.511719 177.539062 68.070312 177.722656 C 67.628906 177.90625 67.238281 178.164062 66.902344 178.503906 C 66.566406 178.839844 66.304688 179.230469 66.121094 179.667969 C 65.941406 180.109375 65.847656 180.570312 65.847656 181.046875 L 65.847656 199.039062 L 58.652344 199.039062 L 58.652344 181.046875 C 58.652344 180.570312 58.5625 180.109375 58.378906 179.667969 C 58.195312 179.230469 57.9375 178.839844 57.597656 178.503906 C 57.261719 178.164062 56.871094 177.90625 56.429688 177.722656 C 55.988281 177.539062 55.53125 177.449219 55.054688 177.449219 L 50.59375 177.449219 L 62.25 167.734375 L 73.90625 177.449219 Z M 69.445312 177.449219 " fill-opacity="1" fill-rule="nonzero"/><path fill="#000000" d="M 65.847656 61.914062 C 66.324219 61.914062 66.785156 61.824219 67.226562 61.640625 C 67.664062 61.457031 68.054688 61.199219 68.390625 60.859375 C 68.730469 60.523438 68.988281 60.132812 69.171875 59.691406 C 69.355469 59.253906 69.445312 58.792969 69.445312 58.316406 L 69.445312 43.925781 C 69.445312 43.445312 69.355469 42.988281 69.171875 42.546875 C 68.988281 42.105469 68.730469 41.71875 68.390625 41.378906 C 68.054688 41.042969 67.664062 40.78125 67.226562 40.601562 C 66.785156 40.417969 66.324219 40.324219 65.847656 40.324219 L 29.867188 40.324219 C 29.390625 40.324219 28.929688 40.417969 28.492188 40.601562 C 28.050781 40.78125 27.660156 41.042969 27.324219 41.378906 C 26.984375 41.71875 26.726562 42.105469 26.542969 42.546875 C 26.359375 42.988281 26.269531 43.445312 26.269531 43.925781 L 26.269531 58.316406 C 26.269531 58.792969 26.359375 59.253906 26.542969 59.691406 C 26.726562 60.132812 26.984375 60.523438 27.324219 60.859375 C 27.660156 61.199219 28.050781 61.457031 28.492188 61.640625 C 28.929688 61.824219 29.390625 61.914062 29.867188 61.914062 Z M 33.464844 47.523438 L 62.25 47.523438 L 62.25 54.71875 L 33.464844 54.71875 Z M 33.464844 47.523438 " fill-opacity="1" fill-rule="nonzero"/><g clip-path="url(#aa73720b45)"><g clip-path="url(#8b8745e2bf)"><g transform="matrix(1, 0, 0, 1, 126, 134)"><g clip-path="url(#7a6459b763)"><g clip-path="url(#53fb1c88de)"><g clip-path="url(#a7386714b1)"><path fill="#ffffff" d="M 0.441406 0.371094 L 25.09375 0.371094 L 25.09375 29.457031 L 0.441406 29.457031 Z M 0.441406 0.371094 " fill-opacity="1" fill-rule="nonzero"/></g></g></g></g></g></g></svg>