<svg xmlns="http://www.w3.org/2000/svg" xmlns:xlink="http://www.w3.org/1999/xlink" width="300" zoomAndPan="magnify" viewBox="0 0 224.87999 225" height="300" preserveAspectRatio="xMidYMid meet" version="1.0"><defs><clipPath id="e3c0343710"><path d="M 55 103 L 82 103 L 82 213.773438 L 55 213.773438 Z M 55 103 " clip-rule="nonzero"/></clipPath><clipPath id="64bae789b0"><path d="M 93 103 L 120 103 L 120 213.773438 L 93 213.773438 Z M 93 103 " clip-rule="nonzero"/></clipPath><clipPath id="7a45ec7006"><path d="M 131 103 L 158 103 L 158 213.773438 L 131 213.773438 Z M 131 103 " clip-rule="nonzero"/></clipPath><clipPath id="d6bd262389"><path d="M 169 61 L 209 61 L 209 213.773438 L 169 213.773438 Z M 169 61 " clip-rule="nonzero"/></clipPath><clipPath id="78332bb858"><path d="M 4.144531 141 L 44 141 L 44 213.773438 L 4.144531 213.773438 Z M 4.144531 141 " clip-rule="nonzero"/></clipPath><clipPath id="5ecdd49d7d"><path d="M 4.144531 11.378906 L 220.78125 11.378906 L 220.78125 153 L 4.144531 153 Z M 4.144531 11.378906 " clip-rule="nonzero"/></clipPath><clipPath id="ea64ebc7fe"><path d="M 183.027344 97.46875 L 191.441406 97.46875 L 191.441406 157.550781 L 183.027344 157.550781 Z M 183.027344 97.46875 " clip-rule="nonzero"/></clipPath><clipPath id="8132d539d1"><path d="M 187.234375 97.46875 C 188.351562 97.46875 189.421875 97.910156 190.210938 98.699219 C 191 99.488281 191.441406 100.558594 191.441406 101.675781 L 191.441406 153.34375 C 191.441406 154.457031 191 155.527344 190.210938 156.316406 C 189.421875 157.105469 188.351562 157.550781 187.234375 157.550781 C 186.121094 157.550781 185.050781 157.105469 184.261719 156.316406 C 183.472656 155.527344 183.027344 154.457031 183.027344 153.34375 L 183.027344 101.675781 C 183.027344 100.558594 183.472656 99.488281 184.261719 98.699219 C 185.050781 97.910156 186.121094 97.46875 187.234375 97.46875 Z M 187.234375 97.46875 " clip-rule="nonzero"/></clipPath><clipPath id="4238b0b433"><path d="M 0.0273438 0.46875 L 8.441406 0.46875 L 8.441406 60.550781 L 0.0273438 60.550781 Z M 0.0273438 0.46875 " clip-rule="nonzero"/></clipPath><clipPath id="ce2efd6d4f"><path d="M 4.234375 0.46875 C 5.351562 0.46875 6.421875 0.910156 7.210938 1.699219 C 8 2.488281 8.441406 3.558594 8.441406 4.675781 L 8.441406 56.34375 C 8.441406 57.457031 8 58.527344 7.210938 59.316406 C 6.421875 60.105469 5.351562 60.550781 4.234375 60.550781 C 3.121094 60.550781 2.050781 60.105469 1.261719 59.316406 C 0.472656 58.527344 0.0273438 57.457031 0.0273438 56.34375 L 0.0273438 4.675781 C 0.0273438 3.558594 0.472656 2.488281 1.261719 1.699219 C 2.050781 0.910156 3.121094 0.46875 4.234375 0.46875 Z M 4.234375 0.46875 " clip-rule="nonzero"/></clipPath><clipPath id="c9cc2128dd"><rect x="0" width="9" y="0" height="61"/></clipPath></defs><g clip-path="url(#e3c0343710)"><path fill="#000000" d="M 55.886719 128.929688 L 55.886719 213.773438 L 81.171875 213.773438 L 81.171875 103.632812 Z M 55.886719 128.929688 " fill-opacity="1" fill-rule="nonzero"/></g><g clip-path="url(#64bae789b0)"><path fill="#000000" d="M 93.816406 103.632812 L 93.816406 213.773438 L 119.101562 213.773438 L 119.101562 128.929688 Z M 93.816406 103.632812 " fill-opacity="1" fill-rule="nonzero"/></g><g clip-path="url(#7a45ec7006)"><path fill="#000000" d="M 131.742188 128.929688 L 131.742188 213.773438 L 157.027344 213.773438 L 157.027344 103.632812 Z M 131.742188 128.929688 " fill-opacity="1" fill-rule="nonzero"/></g><g clip-path="url(#d6bd262389)"><path fill="#000000" d="M 197.230469 63.832031 L 169.671875 90.984375 L 169.671875 213.773438 L 201.699219 213.773438 C 205.195312 213.773438 208.019531 210.941406 208.019531 207.445312 L 208.019531 68.300781 C 208.019531 62.703125 201.21875 59.839844 197.230469 63.832031 Z M 197.230469 63.832031 " fill-opacity="1" fill-rule="nonzero"/></g><g clip-path="url(#78332bb858)"><path fill="#000000" d="M 6.746094 177.675781 C 5.5625 178.863281 4.894531 180.46875 4.894531 182.148438 L 4.894531 207.445312 C 4.894531 210.941406 7.722656 213.773438 11.214844 213.773438 L 43.242188 213.773438 L 43.242188 141.582031 Z M 6.746094 177.675781 " fill-opacity="1" fill-rule="nonzero"/></g><g clip-path="url(#5ecdd49d7d)"><path fill="#000000" d="M 214.34375 11.378906 L 189.058594 11.378906 C 185.5625 11.378906 182.734375 14.207031 182.734375 17.703125 C 182.734375 21.199219 185.5625 24.03125 189.058594 24.03125 L 201.25 24.03125 L 125.421875 99.476562 L 91.964844 66 C 89.492188 63.527344 85.492188 63.527344 83.023438 66 L 6.746094 141.894531 C 4.277344 144.367188 4.277344 148.367188 6.746094 150.839844 C 9.214844 153.308594 13.214844 153.308594 15.683594 150.839844 L 87.492188 79.414062 L 120.953125 112.890625 C 123.421875 115.363281 127.421875 115.363281 129.890625 112.890625 L 208.019531 35.140625 L 208.019531 43.003906 C 208.019531 46.5 210.847656 49.328125 214.34375 49.328125 C 217.835938 49.328125 220.664062 46.5 220.664062 43.003906 L 220.664062 17.703125 C 220.664062 14.207031 217.835938 11.378906 214.34375 11.378906 Z M 214.34375 11.378906 " fill-opacity="1" fill-rule="nonzero"/></g><g clip-path="url(#ea64ebc7fe)"><g clip-path="url(#8132d539d1)"><g transform="matrix(1, 0, 0, 1, 183, 97)"><g clip-path="url(#c9cc2128dd)"><g clip-path="url(#4238b0b433)"><g clip-path="url(#ce2efd6d4f)"><path fill="#000000" d="M 0.0273438 0.46875 L 8.441406 0.46875 L 8.441406 60.550781 L 0.0273438 60.550781 Z M 0.0273438 0.46875 " fill-opacity="1" fill-rule="nonzero"/></g></g></g></g></g></g></svg>