<svg xmlns="http://www.w3.org/2000/svg" xmlns:xlink="http://www.w3.org/1999/xlink" width="300" zoomAndPan="magnify" viewBox="0 0 224.87999 225" height="300" preserveAspectRatio="xMidYMid meet" version="1.0"><defs><clipPath id="0a19457e8c"><path d="M 41.308594 33.496094 L 183.570312 33.496094 L 183.570312 217.988281 L 41.308594 217.988281 Z M 41.308594 33.496094 " clip-rule="nonzero"/></clipPath><clipPath id="9af68b2c61"><path d="M 51.804688 33.496094 L 173.074219 33.496094 C 178.871094 33.496094 183.570312 38.195312 183.570312 43.992188 L 183.570312 207.089844 C 183.570312 212.886719 178.871094 217.582031 173.074219 217.582031 L 51.804688 217.582031 C 46.007812 217.582031 41.308594 212.886719 41.308594 207.089844 L 41.308594 43.992188 C 41.308594 38.195312 46.007812 33.496094 51.804688 33.496094 Z M 51.804688 33.496094 " clip-rule="nonzero"/></clipPath><clipPath id="b46d515680"><path d="M 0.308594 0.496094 L 142.570312 0.496094 L 142.570312 184.625 L 0.308594 184.625 Z M 0.308594 0.496094 " clip-rule="nonzero"/></clipPath><clipPath id="2fc5c1beb4"><path d="M 10.804688 0.496094 L 132.074219 0.496094 C 137.871094 0.496094 142.570312 5.195312 142.570312 10.992188 L 142.570312 174.089844 C 142.570312 179.886719 137.871094 184.582031 132.074219 184.582031 L 10.804688 184.582031 C 5.007812 184.582031 0.308594 179.886719 0.308594 174.089844 L 0.308594 10.992188 C 0.308594 5.195312 5.007812 0.496094 10.804688 0.496094 Z M 10.804688 0.496094 " clip-rule="nonzero"/></clipPath><clipPath id="1a91fa3b8e"><rect x="0" width="143" y="0" height="185"/></clipPath><clipPath id="b538cbc375"><path d="M 34.152344 0.0585938 L 190.820312 0.0585938 L 190.820312 224.9375 L 34.152344 224.9375 Z M 34.152344 0.0585938 " clip-rule="nonzero"/></clipPath></defs><g clip-path="url(#0a19457e8c)"><g clip-path="url(#9af68b2c61)"><g transform="matrix(1, 0, 0, 1, 41, 33)"><g clip-path="url(#1a91fa3b8e)"><g clip-path="url(#b46d515680)"><g clip-path="url(#2fc5c1beb4)"><path fill="#ffffff" d="M 0.308594 0.496094 L 142.570312 0.496094 L 142.570312 184.433594 L 0.308594 184.433594 Z M 0.308594 0.496094 " fill-opacity="1" fill-rule="nonzero"/></g></g></g></g></g></g><path fill="#000000" d="M 85.542969 73.53125 L 72.316406 86.75 L 67.121094 81.558594 C 66.746094 81.1875 66.308594 80.898438 65.820312 80.699219 C 65.328125 80.496094 64.816406 80.398438 64.285156 80.398438 C 63.757812 80.402344 63.246094 80.503906 62.757812 80.707031 C 62.265625 80.910156 61.832031 81.199219 61.457031 81.574219 C 61.082031 81.949219 60.792969 82.382812 60.589844 82.871094 C 60.386719 83.363281 60.285156 83.871094 60.28125 84.402344 C 60.28125 84.933594 60.378906 85.441406 60.582031 85.933594 C 60.78125 86.425781 61.070312 86.859375 61.441406 87.234375 L 69.476562 95.265625 C 69.664062 95.453125 69.863281 95.617188 70.085938 95.765625 C 70.304688 95.910156 70.535156 96.035156 70.777344 96.136719 C 71.023438 96.238281 71.273438 96.3125 71.53125 96.363281 C 71.792969 96.414062 72.050781 96.441406 72.316406 96.441406 C 72.578125 96.441406 72.839844 96.414062 73.101562 96.363281 C 73.359375 96.3125 73.609375 96.238281 73.851562 96.136719 C 74.097656 96.035156 74.328125 95.910156 74.546875 95.765625 C 74.765625 95.617188 74.96875 95.453125 75.15625 95.265625 L 91.226562 79.207031 C 91.589844 78.828125 91.867188 78.394531 92.0625 77.90625 C 92.253906 77.417969 92.347656 76.910156 92.34375 76.382812 C 92.339844 75.859375 92.234375 75.355469 92.03125 74.871094 C 91.828125 74.386719 91.539062 73.957031 91.167969 73.585938 C 90.796875 73.214844 90.367188 72.929688 89.882812 72.722656 C 89.398438 72.519531 88.894531 72.417969 88.367188 72.410156 C 87.839844 72.40625 87.335938 72.5 86.847656 72.695312 C 86.355469 72.886719 85.921875 73.164062 85.542969 73.53125 Z M 85.542969 73.53125 " fill-opacity="1" fill-rule="nonzero"/><path fill="#000000" d="M 85.542969 121.707031 L 72.316406 134.925781 L 67.121094 129.734375 C 66.746094 129.363281 66.308594 129.074219 65.820312 128.875 C 65.328125 128.675781 64.816406 128.574219 64.285156 128.578125 C 63.757812 128.578125 63.246094 128.679688 62.757812 128.882812 C 62.265625 129.089844 61.835938 129.378906 61.460938 129.753906 C 61.085938 130.128906 60.792969 130.558594 60.589844 131.050781 C 60.386719 131.539062 60.285156 132.046875 60.28125 132.578125 C 60.28125 133.109375 60.378906 133.621094 60.582031 134.109375 C 60.78125 134.601562 61.070312 135.035156 61.441406 135.410156 L 69.476562 143.441406 C 69.664062 143.628906 69.863281 143.792969 70.085938 143.941406 C 70.304688 144.085938 70.535156 144.210938 70.777344 144.3125 C 71.023438 144.414062 71.273438 144.488281 71.53125 144.539062 C 71.792969 144.589844 72.050781 144.617188 72.316406 144.617188 C 72.578125 144.617188 72.839844 144.589844 73.101562 144.539062 C 73.359375 144.488281 73.609375 144.414062 73.851562 144.3125 C 74.097656 144.210938 74.328125 144.085938 74.546875 143.941406 C 74.765625 143.792969 74.96875 143.628906 75.15625 143.441406 L 91.226562 127.382812 C 91.589844 127.003906 91.867188 126.570312 92.0625 126.082031 C 92.253906 125.59375 92.347656 125.085938 92.34375 124.5625 C 92.339844 124.035156 92.234375 123.53125 92.03125 123.046875 C 91.828125 122.5625 91.539062 122.132812 91.167969 121.761719 C 90.796875 121.390625 90.367188 121.105469 89.882812 120.902344 C 89.398438 120.695312 88.894531 120.59375 88.367188 120.585938 C 87.839844 120.582031 87.335938 120.675781 86.847656 120.871094 C 86.355469 121.0625 85.921875 121.34375 85.542969 121.707031 Z M 85.542969 121.707031 " fill-opacity="1" fill-rule="nonzero"/><path fill="#000000" d="M 85.542969 169.882812 L 72.316406 183.101562 L 67.121094 177.910156 C 66.746094 177.539062 66.308594 177.25 65.820312 177.050781 C 65.328125 176.851562 64.816406 176.75 64.285156 176.753906 C 63.757812 176.753906 63.246094 176.855469 62.757812 177.0625 C 62.265625 177.265625 61.835938 177.554688 61.460938 177.929688 C 61.085938 178.304688 60.792969 178.734375 60.589844 179.226562 C 60.386719 179.714844 60.285156 180.222656 60.28125 180.753906 C 60.28125 181.285156 60.378906 181.796875 60.582031 182.285156 C 60.78125 182.777344 61.070312 183.210938 61.441406 183.589844 L 69.476562 191.617188 C 69.664062 191.804688 69.863281 191.96875 70.085938 192.117188 C 70.304688 192.261719 70.535156 192.386719 70.777344 192.488281 C 71.023438 192.589844 71.273438 192.664062 71.53125 192.714844 C 71.792969 192.769531 72.050781 192.792969 72.316406 192.792969 C 72.578125 192.792969 72.839844 192.769531 73.101562 192.714844 C 73.359375 192.664062 73.609375 192.589844 73.851562 192.488281 C 74.097656 192.386719 74.328125 192.261719 74.546875 192.117188 C 74.765625 191.96875 74.96875 191.804688 75.15625 191.617188 L 91.226562 175.558594 C 91.589844 175.179688 91.867188 174.746094 92.0625 174.257812 C 92.253906 173.769531 92.347656 173.261719 92.34375 172.738281 C 92.339844 172.210938 92.234375 171.707031 92.03125 171.222656 C 91.828125 170.738281 91.539062 170.308594 91.167969 169.9375 C 90.796875 169.566406 90.367188 169.28125 89.882812 169.078125 C 89.398438 168.875 88.894531 168.769531 88.367188 168.761719 C 87.839844 168.757812 87.335938 168.851562 86.847656 169.046875 C 86.355469 169.238281 85.921875 169.519531 85.542969 169.882812 Z M 85.542969 169.882812 " fill-opacity="1" fill-rule="nonzero"/><path fill="#000000" d="M 108.46875 84.398438 C 108.46875 84.660156 108.496094 84.921875 108.546875 85.179688 C 108.597656 85.4375 108.675781 85.691406 108.773438 85.933594 C 108.875 86.175781 109 86.410156 109.144531 86.628906 C 109.292969 86.847656 109.460938 87.050781 109.644531 87.238281 C 109.832031 87.421875 110.035156 87.589844 110.253906 87.734375 C 110.472656 87.882812 110.707031 88.003906 110.949219 88.105469 C 111.191406 88.207031 111.445312 88.285156 111.703125 88.335938 C 111.960938 88.386719 112.222656 88.410156 112.488281 88.410156 L 160.691406 88.410156 C 160.957031 88.410156 161.21875 88.386719 161.476562 88.335938 C 161.734375 88.285156 161.984375 88.207031 162.230469 88.105469 C 162.472656 88.003906 162.703125 87.882812 162.921875 87.734375 C 163.144531 87.589844 163.347656 87.421875 163.53125 87.234375 C 163.71875 87.050781 163.886719 86.847656 164.03125 86.628906 C 164.179688 86.410156 164.300781 86.175781 164.402344 85.933594 C 164.503906 85.691406 164.582031 85.4375 164.632812 85.179688 C 164.683594 84.921875 164.707031 84.660156 164.707031 84.398438 C 164.707031 84.132812 164.683594 83.871094 164.632812 83.613281 C 164.582031 83.355469 164.503906 83.105469 164.402344 82.859375 C 164.300781 82.617188 164.179688 82.386719 164.03125 82.167969 C 163.886719 81.949219 163.71875 81.746094 163.53125 81.558594 C 163.347656 81.371094 163.144531 81.207031 162.921875 81.058594 C 162.703125 80.914062 162.472656 80.789062 162.230469 80.6875 C 161.984375 80.585938 161.734375 80.511719 161.476562 80.460938 C 161.21875 80.410156 160.957031 80.382812 160.691406 80.382812 L 112.488281 80.382812 C 112.222656 80.382812 111.960938 80.40625 111.703125 80.460938 C 111.445312 80.511719 111.191406 80.585938 110.949219 80.6875 C 110.707031 80.789062 110.472656 80.914062 110.253906 81.058594 C 110.035156 81.207031 109.832031 81.371094 109.644531 81.558594 C 109.460938 81.746094 109.292969 81.949219 109.144531 82.167969 C 109 82.386719 108.875 82.617188 108.773438 82.859375 C 108.675781 83.105469 108.597656 83.355469 108.546875 83.613281 C 108.496094 83.871094 108.46875 84.132812 108.46875 84.398438 Z M 108.46875 84.398438 " fill-opacity="1" fill-rule="nonzero"/><path fill="#000000" d="M 160.691406 128.558594 L 112.488281 128.558594 C 112.222656 128.558594 111.960938 128.585938 111.703125 128.636719 C 111.445312 128.6875 111.191406 128.761719 110.949219 128.863281 C 110.707031 128.964844 110.472656 129.089844 110.253906 129.234375 C 110.035156 129.382812 109.832031 129.546875 109.644531 129.734375 C 109.460938 129.921875 109.292969 130.125 109.148438 130.34375 C 109 130.5625 108.875 130.792969 108.777344 131.035156 C 108.675781 131.28125 108.597656 131.53125 108.546875 131.789062 C 108.496094 132.046875 108.46875 132.308594 108.46875 132.574219 C 108.46875 132.835938 108.496094 133.097656 108.546875 133.355469 C 108.597656 133.613281 108.675781 133.867188 108.777344 134.109375 C 108.875 134.351562 109 134.585938 109.148438 134.804688 C 109.292969 135.023438 109.460938 135.226562 109.644531 135.414062 C 109.832031 135.597656 110.035156 135.765625 110.253906 135.910156 C 110.472656 136.058594 110.707031 136.179688 110.949219 136.28125 C 111.191406 136.382812 111.445312 136.460938 111.703125 136.511719 C 111.960938 136.5625 112.222656 136.589844 112.488281 136.589844 L 160.691406 136.589844 C 161.21875 136.578125 161.722656 136.46875 162.207031 136.261719 C 162.6875 136.050781 163.113281 135.761719 163.480469 135.386719 C 163.851562 135.007812 164.132812 134.578125 164.332031 134.09375 C 164.53125 133.605469 164.632812 133.097656 164.632812 132.574219 C 164.632812 132.046875 164.53125 131.542969 164.332031 131.054688 C 164.132812 130.566406 163.851562 130.136719 163.480469 129.761719 C 163.113281 129.386719 162.6875 129.09375 162.207031 128.886719 C 161.722656 128.679688 161.21875 128.570312 160.691406 128.558594 Z M 160.691406 128.558594 " fill-opacity="1" fill-rule="nonzero"/><path fill="#000000" d="M 160.691406 176.734375 L 112.488281 176.734375 C 112.222656 176.734375 111.960938 176.761719 111.703125 176.8125 C 111.445312 176.863281 111.191406 176.941406 110.949219 177.039062 C 110.707031 177.140625 110.472656 177.265625 110.253906 177.410156 C 110.035156 177.558594 109.832031 177.722656 109.644531 177.910156 C 109.460938 178.097656 109.292969 178.300781 109.148438 178.519531 C 109 178.738281 108.875 178.96875 108.777344 179.214844 C 108.675781 179.457031 108.597656 179.707031 108.546875 179.964844 C 108.496094 180.226562 108.46875 180.484375 108.46875 180.75 C 108.46875 181.011719 108.496094 181.273438 108.546875 181.53125 C 108.597656 181.792969 108.675781 182.042969 108.777344 182.285156 C 108.875 182.53125 109 182.761719 109.148438 182.980469 C 109.292969 183.199219 109.460938 183.402344 109.644531 183.589844 C 109.832031 183.773438 110.035156 183.941406 110.253906 184.085938 C 110.472656 184.234375 110.707031 184.359375 110.949219 184.457031 C 111.191406 184.558594 111.445312 184.636719 111.703125 184.6875 C 111.960938 184.738281 112.222656 184.765625 112.488281 184.765625 L 160.691406 184.765625 C 161.21875 184.753906 161.722656 184.644531 162.207031 184.4375 C 162.6875 184.226562 163.113281 183.9375 163.480469 183.5625 C 163.851562 183.1875 164.132812 182.753906 164.332031 182.269531 C 164.53125 181.78125 164.632812 181.273438 164.632812 180.75 C 164.632812 180.222656 164.53125 179.71875 164.332031 179.230469 C 164.132812 178.746094 163.851562 178.3125 163.480469 177.9375 C 163.113281 177.5625 162.6875 177.269531 162.207031 177.0625 C 161.722656 176.855469 161.21875 176.746094 160.691406 176.734375 Z M 160.691406 176.734375 " fill-opacity="1" fill-rule="nonzero"/><g clip-path="url(#b538cbc375)"><path fill="#000000" d="M 147.304688 16.148438 L 132.167969 16.148438 C 131.929688 15.03125 131.59375 13.941406 131.167969 12.882812 C 130.746094 11.824219 130.230469 10.804688 129.632812 9.832031 C 129.035156 8.859375 128.359375 7.945312 127.605469 7.089844 C 126.847656 6.230469 126.027344 5.441406 125.136719 4.726562 C 124.25 4.007812 123.304688 3.371094 122.308594 2.8125 C 121.3125 2.253906 120.273438 1.785156 119.195312 1.40625 C 118.117188 1.023438 117.015625 0.738281 115.890625 0.546875 C 114.765625 0.351562 113.628906 0.253906 112.488281 0.253906 C 111.34375 0.253906 110.210938 0.351562 109.082031 0.546875 C 107.957031 0.738281 106.855469 1.023438 105.777344 1.40625 C 104.699219 1.785156 103.664062 2.253906 102.664062 2.8125 C 101.667969 3.371094 100.722656 4.007812 99.835938 4.726562 C 98.945312 5.441406 98.125 6.230469 97.371094 7.089844 C 96.617188 7.945312 95.9375 8.859375 95.339844 9.835938 C 94.742188 10.808594 94.230469 11.824219 93.804688 12.882812 C 93.378906 13.941406 93.046875 15.03125 92.804688 16.148438 L 77.671875 16.148438 C 77.144531 16.148438 76.621094 16.199219 76.105469 16.304688 C 75.585938 16.40625 75.085938 16.558594 74.597656 16.761719 C 74.109375 16.964844 73.648438 17.210938 73.210938 17.503906 C 72.769531 17.796875 72.367188 18.128906 71.992188 18.503906 C 71.621094 18.875 71.285156 19.28125 70.992188 19.71875 C 70.699219 20.15625 70.453125 20.617188 70.25 21.105469 C 70.046875 21.59375 69.894531 22.09375 69.792969 22.609375 C 69.6875 23.128906 69.636719 23.648438 69.636719 24.175781 L 69.636719 28.191406 L 50.222656 28.191406 C 49.695312 28.191406 49.171875 28.21875 48.648438 28.269531 C 48.125 28.324219 47.605469 28.398438 47.089844 28.503906 C 46.574219 28.605469 46.0625 28.734375 45.558594 28.886719 C 45.054688 29.039062 44.5625 29.21875 44.074219 29.417969 C 43.589844 29.621094 43.113281 29.84375 42.652344 30.09375 C 42.1875 30.339844 41.734375 30.609375 41.300781 30.902344 C 40.863281 31.195312 40.441406 31.507812 40.03125 31.84375 C 39.625 32.175781 39.238281 32.527344 38.863281 32.898438 C 38.492188 33.273438 38.140625 33.660156 37.804688 34.066406 C 37.472656 34.472656 37.160156 34.894531 36.867188 35.332031 C 36.574219 35.769531 36.304688 36.21875 36.054688 36.683594 C 35.808594 37.148438 35.582031 37.621094 35.382812 38.109375 C 35.179688 38.59375 35.003906 39.085938 34.847656 39.589844 C 34.695312 40.09375 34.566406 40.601562 34.464844 41.117188 C 34.363281 41.632812 34.285156 42.152344 34.234375 42.675781 C 34.179688 43.199219 34.152344 43.722656 34.152344 44.25 L 34.152344 208.851562 C 34.152344 209.378906 34.179688 209.902344 34.234375 210.425781 C 34.285156 210.949219 34.363281 211.46875 34.464844 211.984375 C 34.566406 212.5 34.695312 213.007812 34.847656 213.511719 C 35.003906 214.015625 35.179688 214.507812 35.382812 214.996094 C 35.582031 215.480469 35.808594 215.957031 36.054688 216.417969 C 36.304688 216.882812 36.574219 217.332031 36.867188 217.769531 C 37.160156 218.207031 37.472656 218.628906 37.804688 219.035156 C 38.140625 219.441406 38.492188 219.832031 38.863281 220.203125 C 39.238281 220.574219 39.625 220.925781 40.03125 221.261719 C 40.441406 221.59375 40.863281 221.90625 41.300781 222.199219 C 41.734375 222.492188 42.1875 222.761719 42.652344 223.011719 C 43.113281 223.257812 43.589844 223.484375 44.074219 223.683594 C 44.5625 223.886719 45.054688 224.0625 45.558594 224.214844 C 46.0625 224.367188 46.574219 224.496094 47.089844 224.601562 C 47.605469 224.703125 48.125 224.78125 48.648438 224.832031 C 49.171875 224.882812 49.695312 224.910156 50.222656 224.910156 L 174.75 224.910156 C 175.277344 224.910156 175.800781 224.882812 176.324219 224.832031 C 176.851562 224.78125 177.371094 224.703125 177.886719 224.601562 C 178.402344 224.496094 178.910156 224.367188 179.414062 224.214844 C 179.917969 224.0625 180.414062 223.886719 180.898438 223.683594 C 181.382812 223.484375 181.859375 223.257812 182.324219 223.011719 C 182.785156 222.761719 183.238281 222.492188 183.675781 222.199219 C 184.113281 221.90625 184.535156 221.59375 184.941406 221.261719 C 185.347656 220.925781 185.738281 220.574219 186.109375 220.203125 C 186.480469 219.832031 186.832031 219.441406 187.167969 219.035156 C 187.5 218.628906 187.8125 218.207031 188.105469 217.769531 C 188.398438 217.332031 188.667969 216.882812 188.917969 216.417969 C 189.164062 215.957031 189.390625 215.480469 189.59375 214.996094 C 189.792969 214.507812 189.972656 214.015625 190.125 213.511719 C 190.277344 213.007812 190.40625 212.5 190.507812 211.984375 C 190.613281 211.46875 190.6875 210.949219 190.742188 210.425781 C 190.792969 209.902344 190.820312 209.378906 190.820312 208.851562 L 190.820312 44.25 C 190.820312 43.722656 190.792969 43.199219 190.742188 42.675781 C 190.6875 42.152344 190.613281 41.632812 190.507812 41.117188 C 190.40625 40.601562 190.277344 40.09375 190.125 39.589844 C 189.972656 39.085938 189.792969 38.59375 189.59375 38.109375 C 189.390625 37.621094 189.164062 37.148438 188.917969 36.683594 C 188.667969 36.21875 188.398438 35.769531 188.105469 35.332031 C 187.8125 34.894531 187.5 34.472656 187.167969 34.066406 C 186.832031 33.660156 186.480469 33.273438 186.109375 32.898438 C 185.738281 32.527344 185.347656 32.175781 184.941406 31.84375 C 184.535156 31.507812 184.113281 31.195312 183.675781 30.902344 C 183.238281 30.609375 182.785156 30.339844 182.324219 30.09375 C 181.859375 29.84375 181.382812 29.621094 180.898438 29.417969 C 180.414062 29.21875 179.917969 29.039062 179.414062 28.886719 C 178.910156 28.734375 178.402344 28.605469 177.886719 28.503906 C 177.371094 28.398438 176.851562 28.324219 176.324219 28.269531 C 175.800781 28.21875 175.277344 28.191406 174.75 28.191406 L 155.335938 28.191406 L 155.335938 24.175781 C 155.335938 23.648438 155.285156 23.128906 155.179688 22.609375 C 155.078125 22.09375 154.925781 21.59375 154.722656 21.105469 C 154.519531 20.617188 154.273438 20.15625 153.980469 19.71875 C 153.6875 19.28125 153.355469 18.875 152.980469 18.503906 C 152.609375 18.128906 152.203125 17.796875 151.765625 17.503906 C 151.324219 17.210938 150.863281 16.964844 150.375 16.761719 C 149.890625 16.558594 149.386719 16.40625 148.871094 16.304688 C 148.351562 16.199219 147.832031 16.148438 147.304688 16.148438 Z M 77.671875 24.175781 L 96.417969 24.175781 C 96.683594 24.175781 96.945312 24.152344 97.203125 24.101562 C 97.460938 24.046875 97.710938 23.972656 97.957031 23.871094 C 98.199219 23.769531 98.429688 23.648438 98.652344 23.5 C 98.871094 23.355469 99.074219 23.1875 99.257812 23 C 99.445312 22.816406 99.613281 22.613281 99.757812 22.394531 C 99.90625 22.171875 100.027344 21.941406 100.128906 21.699219 C 100.230469 21.457031 100.308594 21.203125 100.359375 20.945312 C 100.410156 20.6875 100.4375 20.425781 100.4375 20.164062 C 100.445312 19.378906 100.527344 18.601562 100.691406 17.832031 C 100.851562 17.0625 101.085938 16.316406 101.390625 15.59375 C 101.699219 14.871094 102.070312 14.183594 102.511719 13.535156 C 102.953125 12.886719 103.453125 12.285156 104.011719 11.734375 C 104.570312 11.179688 105.179688 10.6875 105.832031 10.253906 C 106.488281 9.820312 107.179688 9.457031 107.90625 9.15625 C 108.632812 8.859375 109.382812 8.632812 110.152344 8.480469 C 110.921875 8.328125 111.703125 8.253906 112.488281 8.253906 C 113.273438 8.253906 114.050781 8.328125 114.820312 8.480469 C 115.59375 8.632812 116.339844 8.859375 117.066406 9.15625 C 117.792969 9.457031 118.484375 9.820312 119.140625 10.253906 C 119.796875 10.6875 120.402344 11.179688 120.960938 11.734375 C 121.519531 12.285156 122.019531 12.886719 122.460938 13.535156 C 122.902344 14.1875 123.277344 14.871094 123.582031 15.59375 C 123.890625 16.316406 124.121094 17.0625 124.285156 17.832031 C 124.445312 18.601562 124.53125 19.378906 124.539062 20.164062 C 124.539062 20.425781 124.5625 20.6875 124.613281 20.945312 C 124.667969 21.203125 124.742188 21.457031 124.84375 21.699219 C 124.945312 21.941406 125.066406 22.175781 125.214844 22.394531 C 125.363281 22.613281 125.527344 22.816406 125.714844 23 C 125.902344 23.1875 126.105469 23.355469 126.324219 23.5 C 126.542969 23.648438 126.773438 23.769531 127.019531 23.871094 C 127.261719 23.972656 127.511719 24.046875 127.773438 24.101562 C 128.03125 24.152344 128.292969 24.175781 128.554688 24.175781 L 147.304688 24.175781 L 147.304688 40.234375 L 77.671875 40.234375 Z M 174.75 36.222656 C 175.277344 36.222656 175.800781 36.273438 176.320312 36.375 C 176.835938 36.480469 177.335938 36.632812 177.824219 36.835938 C 178.3125 37.035156 178.773438 37.285156 179.214844 37.578125 C 179.652344 37.871094 180.058594 38.203125 180.429688 38.574219 C 180.804688 38.949219 181.136719 39.355469 181.429688 39.792969 C 181.722656 40.230469 181.96875 40.691406 182.171875 41.179688 C 182.375 41.664062 182.527344 42.167969 182.628906 42.683594 C 182.734375 43.203125 182.785156 43.722656 182.785156 44.25 L 182.785156 208.851562 C 182.785156 209.378906 182.734375 209.902344 182.628906 210.417969 C 182.527344 210.933594 182.375 211.4375 182.171875 211.921875 C 181.96875 212.410156 181.722656 212.871094 181.429688 213.3125 C 181.136719 213.75 180.804688 214.15625 180.429688 214.527344 C 180.058594 214.898438 179.652344 215.234375 179.214844 215.527344 C 178.773438 215.820312 178.3125 216.066406 177.824219 216.269531 C 177.335938 216.46875 176.835938 216.621094 176.320312 216.726562 C 175.800781 216.828125 175.277344 216.882812 174.75 216.882812 L 50.222656 216.882812 C 49.695312 216.882812 49.171875 216.828125 48.65625 216.726562 C 48.136719 216.621094 47.636719 216.46875 47.148438 216.269531 C 46.660156 216.066406 46.199219 215.820312 45.761719 215.527344 C 45.320312 215.234375 44.917969 214.898438 44.542969 214.527344 C 44.171875 214.15625 43.835938 213.75 43.542969 213.3125 C 43.25 212.871094 43.003906 212.410156 42.800781 211.921875 C 42.601562 211.4375 42.445312 210.933594 42.34375 210.417969 C 42.242188 209.902344 42.1875 209.378906 42.1875 208.851562 L 42.1875 44.25 C 42.1875 43.722656 42.242188 43.203125 42.34375 42.683594 C 42.445312 42.167969 42.601562 41.664062 42.800781 41.179688 C 43.003906 40.691406 43.25 40.230469 43.542969 39.792969 C 43.835938 39.355469 44.171875 38.949219 44.542969 38.574219 C 44.917969 38.203125 45.320312 37.871094 45.761719 37.578125 C 46.199219 37.285156 46.660156 37.035156 47.148438 36.835938 C 47.636719 36.632812 48.136719 36.480469 48.65625 36.375 C 49.171875 36.273438 49.695312 36.222656 50.222656 36.222656 L 69.636719 36.222656 L 69.636719 40.234375 C 69.636719 40.761719 69.6875 41.285156 69.792969 41.800781 C 69.894531 42.316406 70.046875 42.820312 70.25 43.308594 C 70.453125 43.792969 70.699219 44.257812 70.992188 44.695312 C 71.285156 45.132812 71.621094 45.539062 71.992188 45.910156 C 72.367188 46.285156 72.769531 46.617188 73.210938 46.910156 C 73.648438 47.203125 74.109375 47.449219 74.597656 47.652344 C 75.085938 47.851562 75.585938 48.007812 76.105469 48.109375 C 76.621094 48.210938 77.144531 48.265625 77.671875 48.265625 L 147.304688 48.265625 C 147.832031 48.265625 148.351562 48.210938 148.871094 48.109375 C 149.386719 48.007812 149.890625 47.851562 150.375 47.652344 C 150.863281 47.449219 151.324219 47.203125 151.765625 46.910156 C 152.203125 46.617188 152.609375 46.285156 152.980469 45.910156 C 153.355469 45.539062 153.6875 45.132812 153.980469 44.695312 C 154.273438 44.257812 154.519531 43.792969 154.722656 43.308594 C 154.925781 42.820312 155.078125 42.316406 155.179688 41.800781 C 155.285156 41.285156 155.335938 40.761719 155.335938 40.234375 L 155.335938 36.222656 Z M 174.75 36.222656 " fill-opacity="1" fill-rule="nonzero"/></g></svg>