<svg xmlns="http://www.w3.org/2000/svg" xmlns:xlink="http://www.w3.org/1999/xlink" width="300" zoomAndPan="magnify" viewBox="0 0 224.87999 225" height="300" preserveAspectRatio="xMidYMid meet" version="1.0"><defs><clipPath id="e1000e02d4"><path d="M 5.296875 51.292969 L 219.679688 51.292969 L 219.679688 173.480469 L 5.296875 173.480469 Z M 5.296875 51.292969 " clip-rule="nonzero"/></clipPath><clipPath id="c657c4c0e2"><path d="M 148.089844 130.214844 L 154.539062 130.214844 L 154.539062 138.648438 L 148.089844 138.648438 Z M 148.089844 130.214844 " clip-rule="nonzero"/></clipPath><clipPath id="7bb1790500"><path d="M 151.3125 130.214844 C 152.167969 130.214844 152.988281 130.554688 153.59375 131.160156 C 154.199219 131.761719 154.539062 132.582031 154.539062 133.4375 L 154.539062 135.40625 C 154.539062 136.261719 154.199219 137.082031 153.59375 137.683594 C 152.988281 138.289062 152.167969 138.628906 151.3125 138.628906 C 150.460938 138.628906 149.640625 138.289062 149.035156 137.683594 C 148.429688 137.082031 148.089844 136.261719 148.089844 135.40625 L 148.089844 133.4375 C 148.089844 132.582031 148.429688 131.761719 149.035156 131.160156 C 149.640625 130.554688 150.460938 130.214844 151.3125 130.214844 Z M 151.3125 130.214844 " clip-rule="nonzero"/></clipPath><clipPath id="b3493483ce"><path d="M 0.0898438 0.214844 L 6.539062 0.214844 L 6.539062 8.648438 L 0.0898438 8.648438 Z M 0.0898438 0.214844 " clip-rule="nonzero"/></clipPath><clipPath id="eb97a80cee"><path d="M 3.3125 0.214844 C 4.167969 0.214844 4.988281 0.554688 5.59375 1.160156 C 6.199219 1.761719 6.539062 2.582031 6.539062 3.4375 L 6.539062 5.40625 C 6.539062 6.261719 6.199219 7.082031 5.59375 7.683594 C 4.988281 8.289062 4.167969 8.628906 3.3125 8.628906 C 2.460938 8.628906 1.640625 8.289062 1.035156 7.683594 C 0.429688 7.082031 0.0898438 6.261719 0.0898438 5.40625 L 0.0898438 3.4375 C 0.0898438 2.582031 0.429688 1.761719 1.035156 1.160156 C 1.640625 0.554688 2.460938 0.214844 3.3125 0.214844 Z M 3.3125 0.214844 " clip-rule="nonzero"/></clipPath><clipPath id="1cf0648dcf"><rect x="0" width="7" y="0" height="9"/></clipPath></defs><g clip-path="url(#e1000e02d4)"><path fill="#000000" d="M 218.628906 110.605469 L 216.585938 106.785156 L 192.859375 65.804688 C 191.835938 64.277344 190.308594 63.257812 188.519531 63.257812 L 155.863281 63.257812 L 155.863281 56.386719 C 155.863281 53.585938 153.566406 51.292969 150.761719 51.292969 L 44.367188 51.292969 C 41.558594 51.292969 39.261719 53.585938 39.261719 56.386719 C 39.261719 59.183594 41.558594 61.476562 44.367188 61.476562 L 145.65625 61.476562 L 145.65625 146.242188 L 107.894531 146.242188 C 105.601562 136.570312 96.671875 129.1875 86.210938 129.1875 C 75.75 129.1875 66.820312 136.570312 64.523438 146.242188 L 44.367188 146.242188 C 41.558594 146.242188 39.261719 148.53125 39.261719 151.332031 C 39.261719 154.132812 41.558594 156.421875 44.367188 156.421875 L 64.523438 156.421875 C 66.820312 166.097656 75.75 173.480469 86.210938 173.480469 C 96.671875 173.480469 105.601562 166.097656 107.894531 156.421875 L 161.730469 156.421875 C 164.027344 166.097656 172.957031 173.480469 183.417969 173.480469 C 193.878906 173.480469 202.808594 166.097656 205.105469 156.421875 L 214.546875 156.421875 C 217.351562 156.421875 219.648438 154.132812 219.648438 151.332031 L 219.648438 113.660156 C 219.648438 112.640625 219.136719 111.621094 218.628906 110.605469 Z M 205.613281 108.566406 L 181.121094 108.566406 L 177.804688 90.242188 L 194.898438 90.242188 Z M 86.210938 163.296875 C 79.574219 163.296875 74.21875 157.949219 74.21875 151.332031 C 74.21875 144.714844 79.574219 139.367188 86.210938 139.367188 C 92.84375 139.367188 98.199219 144.714844 98.199219 151.332031 C 98.199219 157.949219 92.84375 163.296875 86.210938 163.296875 Z M 183.417969 163.296875 C 176.785156 163.296875 171.425781 157.949219 171.425781 151.332031 C 171.425781 144.714844 176.785156 139.367188 183.417969 139.367188 C 190.050781 139.367188 195.410156 144.714844 195.410156 151.332031 C 195.410156 157.949219 190.050781 163.296875 183.417969 163.296875 Z M 205.105469 146.242188 C 202.808594 136.570312 193.878906 129.1875 183.417969 129.1875 C 172.957031 129.1875 164.027344 136.570312 161.730469 146.242188 L 155.863281 146.242188 L 155.863281 73.695312 L 185.203125 73.695312 L 189.03125 80.058594 L 171.679688 80.058594 C 170.152344 80.058594 168.621094 80.820312 167.855469 81.839844 C 166.832031 83.113281 166.578125 84.386719 166.832031 85.914062 L 171.9375 114.421875 C 172.445312 116.96875 174.488281 118.75 177.039062 118.75 L 209.441406 118.75 L 209.441406 145.988281 L 205.105469 145.988281 Z M 13.496094 74.203125 C 13.496094 71.402344 15.789062 69.113281 18.597656 69.113281 L 47.9375 69.113281 C 50.746094 69.113281 53.039062 71.402344 53.039062 74.203125 C 53.039062 77.003906 50.746094 79.292969 47.9375 79.292969 L 18.597656 79.292969 C 15.789062 79.292969 13.496094 77.003906 13.496094 74.203125 Z M 28.546875 88.96875 L 57.890625 88.96875 C 60.695312 88.96875 62.992188 91.257812 62.992188 94.058594 C 62.992188 96.859375 60.695312 99.148438 57.890625 99.148438 L 28.546875 99.148438 C 25.742188 99.148438 23.445312 96.859375 23.445312 94.058594 C 23.445312 91.257812 25.742188 88.96875 28.546875 88.96875 Z M 47.9375 119.003906 L 10.433594 119.003906 C 7.625 119.003906 5.328125 116.714844 5.328125 113.914062 C 5.328125 111.113281 7.625 108.824219 10.433594 108.824219 L 47.9375 108.824219 C 50.746094 108.824219 53.039062 111.113281 53.039062 113.914062 C 53.039062 116.714844 50.746094 119.003906 47.9375 119.003906 Z M 55.335938 138.605469 L 20.382812 138.605469 C 17.578125 138.605469 15.28125 136.3125 15.28125 133.515625 C 15.28125 130.714844 17.578125 128.421875 20.382812 128.421875 L 55.335938 128.421875 C 58.144531 128.421875 60.441406 130.714844 60.441406 133.515625 C 60.441406 136.3125 58.144531 138.605469 55.335938 138.605469 Z M 55.335938 138.605469 " fill-opacity="1" fill-rule="nonzero"/></g><g clip-path="url(#c657c4c0e2)"><g clip-path="url(#7bb1790500)"><g transform="matrix(1, 0, 0, 1, 148, 130)"><g clip-path="url(#1cf0648dcf)"><g clip-path="url(#b3493483ce)"><g clip-path="url(#eb97a80cee)"><path fill="#222222" d="M 0.0898438 0.214844 L 6.539062 0.214844 L 6.539062 8.625 L 0.0898438 8.625 Z M 0.0898438 0.214844 " fill-opacity="1" fill-rule="nonzero"/></g></g></g></g></g></g></svg>